<?xml version="1.0" encoding="UTF-8" standalone="no"?>
<svg
   xmlns:dc="http://purl.org/dc/elements/1.1/"
   xmlns:cc="http://creativecommons.org/ns#"
   xmlns:rdf="http://www.w3.org/1999/02/22-rdf-syntax-ns#"
   xmlns:svg="http://www.w3.org/2000/svg"
   xmlns="http://www.w3.org/2000/svg"
   xmlns:sodipodi="http://sodipodi.sourceforge.net/DTD/sodipodi-0.dtd"
   xmlns:inkscape="http://www.inkscape.org/namespaces/inkscape"
   aria-hidden="true"
   focusable="false"
   data-prefix="fas"
   data-icon="bars"
   class="svg-inline--fa fa-bars fa-w-14"
   role="img"
   viewBox="0 0 448 448"
   version="1.1"
   id="svg4"
   sodipodi:docname="bars-solid.svg"
   width="448"
   height="448"
   inkscape:version="0.92.4 (33fec40, 2019-01-16)">
  <metadata
     id="metadata10">
    <rdf:RDF>
      <cc:Work
         rdf:about="">
        <dc:format>image/svg+xml</dc:format>
        <dc:type
           rdf:resource="http://purl.org/dc/dcmitype/StillImage" />
        <dc:title></dc:title>
      </cc:Work>
    </rdf:RDF>
  </metadata>
  <defs
     id="defs8" />
  <sodipodi:namedview
     pagecolor="#ffffff"
     bordercolor="#666666"
     borderopacity="1"
     objecttolerance="10"
     gridtolerance="10"
     guidetolerance="10"
     inkscape:pageopacity="0"
     inkscape:pageshadow="2"
     inkscape:window-width="1920"
     inkscape:window-height="1052"
     id="namedview6"
     showgrid="false"
     fit-margin-top="0"
     fit-margin-left="0"
     fit-margin-right="0"
     fit-margin-bottom="0"
     inkscape:zoom="0.921875"
     inkscape:cx="244.26228"
     inkscape:cy="156.1572"
     inkscape:window-x="1920"
     inkscape:window-y="0"
     inkscape:window-maximized="1"
     inkscape:current-layer="svg4" />
  <path
     style="stroke-width:0.77992707;fill:#000000;fill-opacity:1"
     d="M 16.000004,361.69492 H 432 c 8.837,0 16,-4.35716 16,-9.73258 v -24.33145 c 0,-5.37543 -7.163,-9.73258 -16,-9.73258 H 16.000004 c -8.8370003,0 -16.0000007,4.35715 -16.0000007,9.73258 v 24.33145 c 0,5.37542 7.1630004,9.73258 16.0000007,9.73258 z"
     id="path867" />
  <path
     style="stroke-width:0.77992707;fill:#000000;fill-opacity:1"
     d="m 16,245.89832 h 416 c 8.837,0 16,-4.35717 16,-9.73258 v -24.33145 c 0,-5.37543 -7.163,-9.73258 -16,-9.73258 H 16 c -8.8370003,0 -16,4.35715 -16,9.73258 v 24.33145 c 0,5.37542 7.1629997,9.73258 16,9.73258 z"
     id="path865" />
  <path
     style="stroke-width:0.77992707;fill:#000000;fill-opacity:1"
     d="M 16.000002,130.10169 H 432 c 8.837,0 16,-4.35715 16,-9.73258 V 96.037665 c 0,-5.37543 -7.163,-9.73258 -16,-9.73258 H 16.000002 c -8.8370003,0 -16.0000006,4.35715 -16.0000006,9.73258 v 24.331445 c 0,5.37542 7.1630003,9.73258 16.0000006,9.73258 z"
     id="path821-3-6" />
</svg>
