<svg xmlns="http://www.w3.org/2000/svg" viewBox="0 0 56.69 56.69"><defs><style>.cls-1,.cls-2{fill:none;stroke:#060a40;stroke-linecap:round;stroke-linejoin:round;stroke-width:0.75px;}.cls-2{stroke-dasharray:0 2.67;}.cls-3{fill:#fff;}.cls-4{fill:#6675ff;}</style></defs><title>Tavola disegno 116</title><g id="Livello_1" data-name="Livello 1"><polygon class="cls-1" points="48.49 16.59 28.35 4.84 8.2 16.59 8.2 40.1 28.35 51.85 48.49 40.1 48.49 16.59"/><line class="cls-2" x1="28.35" y1="51.85" x2="28.35" y2="4.84"/><line class="cls-2" x1="8.2" y1="40.1" x2="28.35" y2="28.35"/><line class="cls-2" x1="28.35" y1="28.35" x2="8.2" y2="16.6"/><line class="cls-2" x1="28.35" y1="28.35" x2="48.49" y2="16.6"/><line class="cls-2" x1="28.35" y1="28.35" x2="48.49" y2="40.1"/><circle class="cls-3" cx="48.49" cy="16.6" r="3.36"/><circle class="cls-3" cx="48.49" cy="40.1" r="3.36"/><circle class="cls-3" cx="8.2" cy="16.6" r="3.36"/><circle class="cls-3" cx="8.2" cy="40.1" r="3.36"/><circle class="cls-3" cx="28.35" cy="51.85" r="3.36"/><circle class="cls-3" cx="28.35" cy="4.84" r="3.36"/><circle class="cls-1" cx="48.49" cy="16.6" r="3.36"/><circle class="cls-1" cx="48.49" cy="40.1" r="3.36"/><circle class="cls-1" cx="8.2" cy="16.6" r="3.36"/><circle class="cls-1" cx="8.2" cy="40.1" r="3.36"/><circle class="cls-1" cx="28.35" cy="51.85" r="3.36"/><circle class="cls-1" cx="28.35" cy="4.84" r="3.36"/><circle class="cls-4" cx="28.35" cy="28.35" r="6.72"/><circle class="cls-1" cx="28.35" cy="28.35" r="6.72"/></g></svg>