<?xml version="1.0" encoding="UTF-8" standalone="no"?>
<svg
   xmlns:dc="http://purl.org/dc/elements/1.1/"
   xmlns:cc="http://creativecommons.org/ns#"
   xmlns:rdf="http://www.w3.org/1999/02/22-rdf-syntax-ns#"
   xmlns:svg="http://www.w3.org/2000/svg"
   xmlns="http://www.w3.org/2000/svg"
   xmlns:sodipodi="http://sodipodi.sourceforge.net/DTD/sodipodi-0.dtd"
   xmlns:inkscape="http://www.inkscape.org/namespaces/inkscape"
   id="Livello_1"
   data-name="Livello 1"
   viewBox="0 0 1976.1913 382.59839"
   version="1.1"
   sodipodi:docname="glam-logo-horizontal.svg"
   width="1976.1913"
   height="382.59839"
   inkscape:version="0.92.4 (33fec40, 2019-01-16)">
  <metadata
     id="metadata73">
    <rdf:RDF>
      <cc:Work
         rdf:about="">
        <dc:format>image/svg+xml</dc:format>
        <dc:type
           rdf:resource="http://purl.org/dc/dcmitype/StillImage" />
        <dc:title>Tavola disegno 2</dc:title>
      </cc:Work>
    </rdf:RDF>
  </metadata>
  <sodipodi:namedview
     pagecolor="#ffffff"
     bordercolor="#666666"
     borderopacity="1"
     objecttolerance="10"
     gridtolerance="10"
     guidetolerance="10"
     inkscape:pageopacity="0"
     inkscape:pageshadow="2"
     inkscape:window-width="1920"
     inkscape:window-height="1052"
     id="namedview71"
     showgrid="false"
     fit-margin-top="0"
     fit-margin-left="0"
     fit-margin-right="0"
     fit-margin-bottom="0"
     inkscape:zoom="0.26687776"
     inkscape:cx="471.00501"
     inkscape:cy="-42.061599"
     inkscape:window-x="1920"
     inkscape:window-y="0"
     inkscape:window-maximized="1"
     inkscape:current-layer="Livello_1" />
  <defs
     id="defs4">
    <style
       id="style2">.cls-1{fill:#080d5a;}</style>
  </defs>
  <title
     id="title6">Tavola disegno 2</title>
  <path
     class="cls-1"
     d="m 1050.8113,207.7 q 0,13.91 12.15,21.55 12.15,7.64 33.14,7.64 18.83,0 29.19,-7.5 10.36,-7.5 10.39,-19.78 0,-9.56 -5.87,-15 a 39.09,39.09 0 0 0 -14.46,-8.32 183.39,183.39 0 0 0 -23.05,-5.59 215.43,215.43 0 0 1 -26.73,-6.69 42.16,42.16 0 0 1 -17.2,-10.77 q -7.09,-7.37 -7.09,-20.46 0,-16.92 13.65,-27.56 13.65,-10.64 40.35,-10.65 17.46,0 28.91,5.73 11.45,5.73 16.79,14.33 a 33,33 0 0 1 5.32,17.55 l -0.27,3.82 h -13.65 v -3.55 q 0,-8.73 -7.77,-17.05 -7.77,-8.32 -31.78,-8.32 -23.19,0 -30.43,7.92 -7.24,7.92 -7.22,17.18 a 16.41,16.41 0 0 0 5.5,12.86 36.47,36.47 0 0 0 13.63,7.51 q 8.15,2.63 22.6,5.63 a 259.94,259.94 0 0 1 27.28,7.09 44,44 0 0 1 18,11.19 q 7.36,7.63 7.36,20.46 0,22.37 -15.41,32.46 -15.41,10.09 -41.6,10.1 -19.93,0 -32.34,-6.28 -12.41,-6.28 -17.71,-15.31 -5.32,-9 -5.32,-17.19 c 0,-2.18 0,-3.82 0.14,-4.91 0.14,-1.09 0.13,-1.73 0.13,-1.91 h 13.65 a 19.79,19.79 0 0 0 -0.28,3.82 z"
     id="path8"
     inkscape:connector-curvature="0"
     style="fill:#080d5a" />
  <path
     class="cls-1"
     d="m 1228.5613,248.25 a 42,42 0 0 1 -10,1.23 q -12.56,0 -20.19,-7.64 -7.63,-7.64 -7.6,-22.59 v -99.33 h -15.28 v -12.55 h 15.28 l 4.91,-44.47 h 9 v 44.47 h 32.47 v 12.55 h -32.47 v 98.76 q 0,10.92 4.23,14.6 4.23,3.68 11.32,3.68 a 34.3,34.3 0 0 0 8.19,-1.36 54.2,54.2 0 0 0 8.73,-3 v 12.28 a 29.74,29.74 0 0 1 -8.59,3.37 z"
     id="path10"
     inkscape:connector-curvature="0"
     style="fill:#080d5a" />
  <path
     class="cls-1"
     d="m 1380.6813,236.92603 q 6.29,0 13.65,-4.37 v 11.73 a 30.35,30.35 0 0 1 -17.47,5.19 q -9.81,0 -13.63,-7.23 -3.82,-7.23 -3.83,-19.78 -8.44,13.9 -21.14,20.46 -12.7,6.56 -29.87,6.55 -19.38,0 -31.65,-8.87 -12.27,-8.87 -12.28,-30.14 0,-19.38 11.6,-29.06 11.6,-9.68 31.37,-12.55 19.79,-2.86 52,-2.86 v -17.46 q 0,-17.46 -8.32,-24.42 -8.32,-6.96 -28,-7 -18,0 -28.92,7 -10.92,7 -10.91,21.41 v 4.37 h -13.4 a 58.47,58.47 0 0 1 -0.55,-7.09 q 0,-17.73 15.15,-28 15.15,-10.27 38.6,-10.23 25.37,0 37.79,10.1 12.42,10.1 12.41,31.1 v 82.12 q 0,9.03 7.4,9.03 z m -66.7,-56.48 q -16.5,1.92 -26.05,8.87 -9.55,6.95 -9.55,21.42 0,13.65 7.77,19.91 7.77,6.26 25,6.28 a 52,52 0 0 0 23.32,-5.46 44.2,44.2 0 0 0 18,-16.5 q 6.94,-11.06 6.95,-27.15 v -9.27 q -28.98,0 -45.48,1.9 z"
     id="path12"
     inkscape:connector-curvature="0"
     style="fill:#080d5a" />
  <path
     class="cls-1"
     d="m 1468.9013,248.25 a 42,42 0 0 1 -10,1.23 q -12.56,0 -20.19,-7.64 -7.63,-7.64 -7.6,-22.59 v -99.33 h -15.28 v -12.55 h 15.28 l 4.91,-44.47 h 9 v 44.47 h 32.46 v 12.55 h -32.45 v 98.76 q 0,10.92 4.23,14.6 4.23,3.68 11.31,3.68 a 34.22,34.22 0 0 0 8.19,-1.36 54.2,54.2 0 0 0 8.73,-3 v 12.28 a 29.74,29.74 0 0 1 -8.59,3.37 z"
     id="path14"
     inkscape:connector-curvature="0"
     style="fill:#080d5a" />
  <path
     class="cls-1"
     d="m 1616.2213,248.25 a 42,42 0 0 1 -10,1.23 q -12.55,0 -20.19,-7.64 -7.64,-7.64 -7.6,-22.59 v -99.33 h -15.28 v -12.55 h 15.28 l 4.91,-44.47 h 9 v 44.47 h 32.46 v 12.55 h -32.45 v 98.76 q 0,10.92 4.22,14.6 4.22,3.68 11.32,3.68 a 34.3,34.3 0 0 0 8.19,-1.36 54.2,54.2 0 0 0 8.73,-3 v 12.28 a 29.74,29.74 0 0 1 -8.59,3.37 z"
     id="path16"
     inkscape:connector-curvature="0"
     style="fill:#080d5a" />
  <path
     class="cls-1"
     d="m 1681.5513,241.16 q -13.36,-8.32 -20.87,-24.15 -7.51,-15.83 -7.5,-37.92 V 175 q 0,-22.09 7.5,-37.92 7.5,-15.83 20.87,-24.15 13.36,-8.31 30.56,-8.32 a 56.68,56.68 0 0 1 30.57,8.32 q 13.37,8.32 20.88,24.15 7.51,15.83 7.5,37.92 v 4.09 q 0,22.1 -7.5,37.92 -7.5,15.82 -20.88,24.15 -13.38,8.32 -30.55,8.32 -17.17,0 -30.58,-8.32 z m 63,-18.69 q 12.55,-14.46 12.55,-41.74 v -7.37 q 0,-27.27 -12.55,-41.74 -12.55,-14.47 -32.46,-14.46 -19.92,0 -32.46,14.46 -12.54,14.46 -12.56,41.74 v 7.37 q 0,27.28 12.56,41.74 12.56,14.46 32.46,14.46 19.93,0 32.48,-14.46 z"
     id="path18"
     inkscape:connector-curvature="0"
     style="fill:#080d5a" />
  <path
     class="cls-1"
     d="m 1831.3213,241.16 q -13.36,-8.32 -20.87,-24.15 -7.51,-15.83 -7.5,-37.92 V 175 q 0,-22.09 7.5,-37.92 7.5,-15.83 20.87,-24.15 13.36,-8.31 30.56,-8.32 a 56.68,56.68 0 0 1 30.55,8.32 q 13.37,8.32 20.87,24.15 7.5,15.83 7.51,37.92 v 4.09 q 0,22.1 -7.51,37.92 -7.51,15.82 -20.87,24.15 -13.38,8.32 -30.55,8.32 -17.17,0 -30.56,-8.32 z m 63,-18.69 q 12.55,-14.46 12.55,-41.74 v -7.37 q 0,-27.27 -12.55,-41.74 -12.55,-14.47 -32.44,-14.46 -19.92,0 -32.47,14.46 -12.55,14.46 -12.55,41.74 v 7.37 q 0,27.28 12.55,41.74 12.55,14.46 32.47,14.46 19.91,0 32.46,-14.46 z"
     id="path20"
     inkscape:connector-curvature="0"
     style="fill:#080d5a" />
  <path
     class="cls-1"
     d="M 1962.2713,249.48 V 53.05 h 13.92 v 196.43 z"
     id="path22"
     inkscape:connector-curvature="0"
     style="fill:#080d5a" />
  <path
     class="cls-1"
     d="m 486.22593,372.59839 q -11.83,10 -30.54,10 -13.37,0 -22.79,-4.84 -9.42,-4.84 -14.85,-17.35 -5.41,-12.51 -5.42,-34.55 v -4.33 q 0,-22 5.42,-34.56 5.42,-12.56 14.85,-17.36 9.43,-4.83 22.79,-4.84 18.87,0 30.63,9.85 11.76,9.85 11.76,33.89 h -8.84 q 0,-19.86 -9.18,-27.8 -9.18,-7.94 -24.37,-7.93 -16.37,0 -25.2,10.11 -8.83,10.11 -8.85,36.63 v 8.35 q 0,26.53 8.85,36.63 8.85,10.1 25.2,10.1 33.56,0 33.55,-35.55 h 8.84 q 0,23.54 -11.85,33.55 z"
     id="path24"
     inkscape:connector-curvature="0"
     style="fill:#080d5a" />
  <path
     class="cls-1"
     d="m 590.88593,354.22839 h -60.43 l -11.68,28.37 h -9.35 l 47.41,-114.5 h 8.32 l 47.4,114.5 h -9.85 z m -57.09,-8.18 h 53.75 l -26.54,-65.59 h -0.67 z"
     id="path26"
     inkscape:connector-curvature="0"
     style="fill:#080d5a" />
  <path
     class="cls-1"
     d="m 692.36593,293.30839 q 0,-10 -8.26,-15.28 -8.26,-5.28 -21.12,-5.26 -13.18,0 -21.2,4.93 -8.02,4.93 -8,15.61 0,7 4.18,11.26 a 29,29 0 0 0 10.35,6.68 145.82,145.82 0 0 0 16.69,5.09 184,184 0 0 1 20.44,6.43 33,33 0 0 1 13.19,9.51 q 5.41,6.44 5.42,17.27 0,17.19 -11.26,25.12 -11.26,7.93 -29.29,7.93 -18.7,0 -30,-7.75 -11.3,-7.75 -11.35,-25.13 l 0.17,-3 h 8.51 l -0.17,4.5 q 0,12.19 8.85,17.78 8.85,5.59 23.36,5.59 32.38,0 32.38,-24.53 0,-7.85 -4.42,-12.69 a 28.49,28.49 0 0 0 -10.91,-7.38 176,176 0 0 0 -17.61,-5.51 175.61,175.61 0 0 1 -19.69,-6.34 32.28,32.28 0 0 1 -12.52,-9.1 q -5.17,-6.09 -5.17,-16.27 0,-14 10.76,-21 10.76,-7 27.12,-7 16.88,0 27.38,7.35 10.5,7.35 10.52,22.7 v 2.17 h -8.35 z"
     id="path28"
     inkscape:connector-curvature="0"
     style="fill:#080d5a" />
  <path
     class="cls-1"
     d="m 792.84593,293.30839 q 0,-10 -8.26,-15.28 -8.26,-5.28 -21.12,-5.26 -13.19,0 -21.2,4.93 -8.01,4.93 -8,15.61 0,7 4.18,11.26 a 29.18,29.18 0 0 0 10.35,6.68 145.82,145.82 0 0 0 16.69,5.09 184,184 0 0 1 20.44,6.43 33,33 0 0 1 13.23,9.51 q 5.42,6.44 5.42,17.27 0,17.19 -11.26,25.12 -11.26,7.93 -29.29,7.93 -18.7,0 -30.05,-7.75 -11.35,-7.75 -11.35,-25.13 l 0.17,-3 h 8.51 l -0.17,4.5 q 0,12.19 8.85,17.78 8.85,5.59 23.37,5.59 32.39,0 32.38,-24.53 0,-7.85 -4.43,-12.69 a 28.49,28.49 0 0 0 -10.9,-7.38 176.57,176.57 0 0 0 -17.6,-5.51 175.2,175.2 0 0 1 -19.7,-6.34 32.28,32.28 0 0 1 -12.52,-9.1 q -5.18,-6.09 -5.17,-16.27 0,-14 10.77,-21 10.77,-7 27.12,-7 16.86,0 27.37,7.35 10.51,7.35 10.48,22.69 v 2.18 h -8.35 z"
     id="path30"
     inkscape:connector-curvature="0"
     style="fill:#080d5a" />
  <path
     class="cls-1"
     d="m 896.49596,354.22839 h -60.42003 l -11.68,28.37 h -9.35 l 47.4,-114.5 h 8.35 l 47.36003,114.5 h -9.85 z m -57.08003,-8.18 h 53.74003 l -26.54003,-65.59 h -0.66 z"
     id="path32"
     inkscape:connector-curvature="0"
     style="fill:#080d5a" />
  <path
     class="cls-1"
     d="m 1006.336,382.59839 -63.44004,-97.3 h -0.5 v 97.3 h -8 v -114.5 h 7.68 l 63.76004,97.31 h 0.51 v -97.31 h 8 v 114.5 z"
     id="path34"
     inkscape:connector-curvature="0"
     style="fill:#080d5a" />
  <path
     class="cls-1"
     d="m 1046.046,268.09826 h 36.72 q 20.53,0 32.46,12.44 11.93,12.44 11.93,42.65 v 4.17 q 0,30 -12,42.64 -12,12.64 -32.38,12.6 h -36.73 z m 62.59,96.31 q 9.52,-10.17 9.52,-35.55 v -7.2 q 0,-45.56 -35.39,-45.57 h -27.71 v 98.48 h 27.71 q 16.39,0.02 25.87,-10.16 z"
     id="path36"
     inkscape:connector-curvature="0"
     style="fill:#080d5a" />
  <path
     class="cls-1"
     d="m 1237.656,382.35746 a 13.23,13.23 0 0 1 -2.67,0.24 c -3.45,0 -6.48,-1.52 -9.09,-4.59 -2.61,-3.07 -3.93,-8.76 -3.93,-17.1 q 0,-20 -7,-26.62 c -4.68,-4.4 -9.51,-6.6 -14.53,-6.6 h -36.88 v 54.41 h -9 v -114.5 h 46.6 a 34.4,34.4 0 0 1 15.39,3.56 30.75,30.75 0 0 1 11.77,10 25.11,25.11 0 0 1 4.51,14.77 28.29,28.29 0 0 1 -2.67,11.9 29.51,29.51 0 0 1 -7.43,10 21.23,21.23 0 0 1 -10.43,5.18 v 0.83 c 0,-0.55 1.69,0.11 5.09,2 3.4,1.89 6.45,5.26 9.18,10.09 2.73,4.83 4.09,11.72 4.09,20.61 q 0,9.52 1.16,14 1.16,4.48 2.43,5.51 a 23,23 0 0 0 4.92,2.75 v 3.17 a 8.54,8.54 0 0 1 -1.51,0.39 z m -24.86,-65.68 a 22.27,22.27 0 0 0 8.17,-8.1 21.39,21.39 0 0 0 3,-11.1 21,21 0 0 0 -3,-11 22.32,22.32 0 0 0 -19.36,-10.85 h -38.05 v 44.07 h 38.05 a 21.93,21.93 0 0 0 11.19,-3.02 z"
     id="path38"
     inkscape:connector-curvature="0"
     style="fill:#080d5a" />
  <path
     class="cls-1"
     d="m 1328.966,354.22839 h -60.43 l -11.68,28.37 h -9.35 l 47.41,-114.5 h 8.35 l 47.4,114.5 h -9.85 z m -57.08,-8.18 h 53.75 l -26.55,-65.59 h -0.66 z"
     id="path40"
     inkscape:connector-curvature="0"
     style="fill:#080d5a" />
  <path
     class="cls-1"
     d="m 1440.8096,324.86839 -20.52,57.73 h -8.79 l -20.52,-57.69 h 8.83 l 16.23,46.5 h 0.5 l 16.32,-46.5 z"
     id="path42"
     inkscape:connector-curvature="0"
     style="fill:#080d5a" />
  <path
     class="cls-1"
     d="m 1484.7096,324.86839 -1.09,7.48 h -28.52 v 17 h 25.82 v 7.48 h -25.82 v 18.25 h 29 l 1.2,7.52 h -38.43 v -57.73 z"
     id="path44"
     inkscape:connector-curvature="0"
     style="fill:#080d5a" />
  <path
     class="cls-1"
     d="m 1531.7696,327.97526 a 11.65,11.65 0 0 1 4.91,9.93 15.43,15.43 0 0 1 -3,9.58 11.88,11.88 0 0 1 -7.36,4.8 v 0.42 a 14.11,14.11 0 0 1 6.64,5.55 16.83,16.83 0 0 1 2.61,9.5 35.46,35.46 0 0 0 0.51,7 7.17,7.17 0 0 0 1.34,3.28 5.37,5.37 0 0 0 2.44,1.43 v 2.36 a 10.46,10.46 0 0 1 -4,0.76 8.26,8.26 0 0 1 -6.3,-2.4 q -2.26,-2.4 -2.27,-9 0,-6.81 -2.82,-10.64 a 8.45,8.45 0 0 0 -7,-3.83 h -14.6 v 25.38 h -8.23 v -57.73 h 24.55 q 7.66,0 12.58,3.61 z m -28.9,3.87 v 17.32 h 16.41 a 9.39,9.39 0 0 0 6.38,-2.43 7.74,7.74 0 0 0 2.79,-6.06 v -0.34 a 8.06,8.06 0 0 0 -2.53,-6.09 9.24,9.24 0 0 0 -6.64,-2.4 z"
     id="path46"
     inkscape:connector-curvature="0"
     style="fill:#080d5a" />
  <path
     class="cls-1"
     d="m 1582.4996,327.42837 q 5.41,4.2 5.42,11.94 v 1 h -8.24 v -1.26 a 7,7 0 0 0 -3.28,-6.22 15.35,15.35 0 0 0 -8.66,-2.19 q -6,0 -9.3,2 a 6.25,6.25 0 0 0 -3.32,5.67 6,6 0 0 0 1.89,4.55 13.57,13.57 0 0 0 4.71,2.77 q 2.84,1 7.78,2.27 a 89.94,89.94 0 0 1 10.35,3.28 17.9,17.9 0 0 1 6.77,4.79 12.41,12.41 0 0 1 2.82,8.5 q 0,9.42 -5.76,13.75 -5.76,4.33 -16.18,4.32 -10.44,0 -16.19,-4.41 -5.75,-4.41 -5.81,-12.83 l 0.09,-1.68 h 8.24 l -0.08,1.76 a 8.1,8.1 0 0 0 3.66,7.28 q 3.65,2.4 10.13,2.4 6.32,0 10,-2.32 a 7.14,7.14 0 0 0 3.66,-6.35 7,7 0 0 0 -2,-5.17 13.51,13.51 0 0 0 -5,-3.07 c -2,-0.73 -4.69,-1.54 -8.11,-2.44 a 91.79,91.79 0 0 1 -10.09,-3.19 16.54,16.54 0 0 1 -6.48,-4.67 12.35,12.35 0 0 1 -2.69,-8.28 q 0,-8.33 5.63,-12.37 5.63,-4.04 15.06,-4 9.54,-0.03 14.98,4.17 z"
     id="path48"
     inkscape:connector-curvature="0"
     style="fill:#080d5a" />
  <path
     class="cls-1"
     d="m 1617.9296,324.86839 v 7.48 h -6.73 v 42.72 h 6.73 v 7.53 h -21.7 v -7.49 h 6.72 v -42.76 h -6.72 v -7.48 z"
     id="path50"
     inkscape:connector-curvature="0"
     style="fill:#080d5a" />
  <path
     class="cls-1"
     d="m 1661.8296,326.24886 a 21.24,21.24 0 0 1 8.36,9 30,30 0 0 1 3,13.84 v 7.57 a 29.91,29.91 0 0 1 -3,13.83 21.21,21.21 0 0 1 -8.36,9 26.82,26.82 0 0 1 -25.07,0 21.09,21.09 0 0 1 -8.36,-9 30,30 0 0 1 -3,-13.83 v -7.57 a 30.08,30.08 0 0 1 3,-13.84 21.12,21.12 0 0 1 8.36,-9 26.82,26.82 0 0 1 25.07,0 z m -24.05,9.08 c -2.76,3.14 -4.12,7.71 -4.12,13.71 v 7.57 c 0,6 1.32,10.57 4,13.71 2.68,3.14 6.54,4.71 11.64,4.71 q 7.41,0 11.53,-4.67 4.12,-4.67 4.12,-13.75 v -7.57 q 0,-9 -4,-13.71 -4,-4.71 -11.66,-4.71 -7.39,0 -11.51,4.71 z"
     id="path52"
     inkscape:connector-curvature="0"
     style="fill:#080d5a" />
  <path
     class="cls-1"
     d="m 1726.8396,324.86839 v 57.73 h -7 l -28.17,-42.22 -0.25,0.09 v 42.13 h -7.49 v -57.73 h 7.23 l 27.94,41.73 0.26,-0.08 v -41.65 z"
     id="path54"
     inkscape:connector-curvature="0"
     style="fill:#080d5a" />
  <path
     class="cls-1"
     d="m 1782.5996,375.06839 h 15.14 v 7.53 h -38.52 v -7.49 h 15.13 v -39.23 h -15.3 v -5.38 a 66.08,66.08 0 0 0 20.35,-5.63 h 3.2 z"
     id="path56"
     inkscape:connector-curvature="0"
     style="fill:#080d5a" />
  <path
     class="cls-1"
     d="m 1814.7996,373.21839 v 9.38 h -8.49 v -9.34 z"
     id="path58"
     inkscape:connector-curvature="0"
     style="fill:#080d5a" />
  <path
     class="cls-1"
     d="m 1855.3396,326.45839 a 16.34,16.34 0 0 1 6.31,6.31 16.87,16.87 0 0 1 2.1,8.16 18.25,18.25 0 0 1 -2.44,9.92 32.25,32.25 0 0 1 -7.82,8 l -16.06,12.28 a 22.05,22.05 0 0 0 -3,2.4 c -0.7,0.7 -1.05,1.22 -1.05,1.55 h 30.62 v 7.52 h -39.61 v -2 a 17.29,17.29 0 0 1 2.06,-8.2 19.9,19.9 0 0 1 5.76,-6.69 l 16.74,-12.61 a 19.92,19.92 0 0 0 5,-5.63 12.72,12.72 0 0 0 1.51,-6.14 9.51,9.51 0 0 0 -5,-8.37 11.65,11.65 0 0 0 -5.88,-1.39 12.73,12.73 0 0 0 -6.27,1.51 11.15,11.15 0 0 0 -4.24,4 10.57,10.57 0 0 0 -1.52,5.55 v 1.18 a 4.17,4.17 0 0 0 0.09,1 h -8.14 l -0.08,-0.84 v -0.68 a 20.66,20.66 0 0 1 2.19,-9.29 17.33,17.33 0 0 1 6.81,-7.19 22.41,22.41 0 0 1 11.69,-2.77 20.18,20.18 0 0 1 10.23,2.42 z"
     id="path60"
     inkscape:connector-curvature="0"
     style="fill:#080d5a" />
  <path
     class="cls-1"
     d="m 148.95,10.96 a 77,77 0 0 1 32.34,31.1 q 11.29,20.15 11.3,46.65 h -34.63 q 0,-27.21 -15,-42.23 -15,-15.02 -43.309996,-14.97 -31.8,0 -48.41,19.62 -16.61,19.62 -16.61,57.73 v 31.8 q 0,38.17 16.43,57.78 16.43,19.61 48.59,19.61 30.749996,0 44.889996,-15.37 14.14,-15.37 14.13,-48.95 v -4.59 H 90.110004 v -31.1 H 192.59 v 82.7 q 0,29.34 2.13,45.23 h -20.5 a 214.69,214.69 0 0 1 -7.06,-29 q -23,32.5 -67.509996,32.51 -47,0 -73.33,-28.81 Q -0.0099962,191.86 3.7965072e-6,140.67 v -31.8 q 0,-50.89 26.3200002034928,-79.87 26.32,-28.98 73.33,-29 Q 127.93,0.01 148.95,10.96 Z"
     id="path62"
     inkscape:connector-curvature="0"
     style="fill:#080d5a" />
  <path
     class="cls-1"
     d="m 267.5,7.03 v 211 h 111.36 l 4.94,31.45 H 232.91 V 7.03 Z"
     id="path64"
     inkscape:connector-curvature="0"
     style="fill:#080d5a" />
  <path
     class="cls-1"
     d="m 547.66,7.05 94.7,242.43 h -37.45 l -20.5,-52.65 H 468.5 l -20.14,52.65 H 414.78 L 509.5,7.05 Z m -19.8,41.7 h -2.12 L 480.86,165.4 h 91.53 z"
     id="path66"
     inkscape:connector-curvature="0"
     style="fill:#080d5a" />
  <path
     class="cls-1"
     d="M 942.01,7.02 V 249.48 H 907.37 V 47.69 h -2.12 L 821.5,249.48 H 792.16 L 708.76,47.69 h -1.77 V 249.48 H 675.55 V 7.02 h 54.42 l 78.1,190.83 h 1.43 L 887.93,7.02 Z"
     id="path68"
     inkscape:connector-curvature="0"
     style="fill:#080d5a" />
</svg>
