<svg id="Livello_1" data-name="Livello 1" xmlns="http://www.w3.org/2000/svg" viewBox="0 0 570 120"><defs><style>.cls-1{fill:#080d5a;}</style></defs><title>Tavola disegno 6</title><path class="cls-1" d="M88.29,97.77,81,118.4H77.79L70.45,97.77h3.16l5.8,16.63h.19l5.83-16.63Z"/><path class="cls-1" d="M104,97.77l-.39,2.67H93.4v6.08h9.24v2.68H93.4v6.52h10.38l.42,2.68H90.45V97.77Z"/><path class="cls-1" d="M120.82,99.06a4.16,4.16,0,0,1,1.76,3.55,5.56,5.56,0,0,1-1.07,3.43,4.25,4.25,0,0,1-2.63,1.71v.15a5,5,0,0,1,2.37,2,6,6,0,0,1,.94,3.4,12.8,12.8,0,0,0,.18,2.49,2.64,2.64,0,0,0,.48,1.18,1.93,1.93,0,0,0,.87.51v.84a3.69,3.69,0,0,1-1.41.27,3,3,0,0,1-2.26-.86,4.78,4.78,0,0,1-.81-3.23,6.34,6.34,0,0,0-1-3.81,3,3,0,0,0-2.51-1.36h-5.23v9.08h-2.95V97.77h8.78A7.4,7.4,0,0,1,120.82,99.06Zm-10.33,1.38v6.2h5.86a3.38,3.38,0,0,0,2.29-.87,2.78,2.78,0,0,0,1-2.17v-.12a2.88,2.88,0,0,0-.9-2.18,3.33,3.33,0,0,0-2.38-.86Z"/><path class="cls-1" d="M139,99a5.1,5.1,0,0,1,1.94,4.27v.36h-3v-.45a2.53,2.53,0,0,0-1.18-2.23,5.48,5.48,0,0,0-3.09-.78,6.57,6.57,0,0,0-3.33.71,2.23,2.23,0,0,0-1.18,2,2.11,2.11,0,0,0,.67,1.62,4.92,4.92,0,0,0,1.69,1c.67.24,1.59.51,2.78.81a31.87,31.87,0,0,1,3.7,1.17,6.28,6.28,0,0,1,2.42,1.72,4.42,4.42,0,0,1,1,3,5.76,5.76,0,0,1-2.06,4.92,9.51,9.51,0,0,1-5.79,1.55,9.34,9.34,0,0,1-5.79-1.58,5.41,5.41,0,0,1-2.06-4.59l0-.6h2.94l0,.63a2.91,2.91,0,0,0,1.31,2.61,8.16,8.16,0,0,0,7.19,0,2.57,2.57,0,0,0,1.31-2.27,2.49,2.49,0,0,0-.71-1.85A4.67,4.67,0,0,0,136,110c-.71-.26-1.68-.55-2.9-.87A34.34,34.34,0,0,1,129.5,108a5.74,5.74,0,0,1-2.32-1.67,4.41,4.41,0,0,1-1-3,5.08,5.08,0,0,1,2-4.42,9.1,9.1,0,0,1,5.39-1.45A8.56,8.56,0,0,1,139,99Z"/><path class="cls-1" d="M151.63,97.77v2.67h-2.4v15.28h2.4v2.68h-7.76v-2.68h2.41V100.44h-2.41V97.77Z"/><path class="cls-1" d="M167.34,98.58a7.59,7.59,0,0,1,3,3.2,10.79,10.79,0,0,1,1.07,5v2.71a10.74,10.74,0,0,1-1.07,4.94,7.56,7.56,0,0,1-3,3.21,9.62,9.62,0,0,1-9,0,7.56,7.56,0,0,1-3-3.21,10.74,10.74,0,0,1-1.07-4.94v-2.71a10.79,10.79,0,0,1,1.07-5,7.59,7.59,0,0,1,3-3.2,9.54,9.54,0,0,1,9,0Zm-8.61,3.25a7.23,7.23,0,0,0-1.47,4.9v2.71a7.35,7.35,0,0,0,1.43,4.9,6,6,0,0,0,8.28,0,7.17,7.17,0,0,0,1.48-4.91v-2.71a7.38,7.38,0,0,0-1.43-4.9,5.93,5.93,0,0,0-8.29,0Z"/><path class="cls-1" d="M190.59,97.77V118.4h-2.5L178,103.3l-.09,0V118.4h-2.67V97.77h2.58l10,14.92.09,0V97.77Z"/><path class="cls-1" d="M212.36,98.34a5.75,5.75,0,0,1,2.26,2.25,6.07,6.07,0,0,1,.75,2.92,6.57,6.57,0,0,1-.87,3.55,11.63,11.63,0,0,1-2.8,2.86L206,114.31a8.07,8.07,0,0,0-1.07.86c-.25.25-.38.43-.38.55h11v2.68H201.29v-.72a6.26,6.26,0,0,1,.74-2.94,7.22,7.22,0,0,1,2.06-2.39l6-4.51a7.05,7.05,0,0,0,1.8-2,4.54,4.54,0,0,0,.54-2.2,3.39,3.39,0,0,0-1.77-3,4.2,4.2,0,0,0-2.11-.5,4.56,4.56,0,0,0-2.24.54,4,4,0,0,0-1.52,1.45,3.78,3.78,0,0,0-.54,2v.42a1.6,1.6,0,0,0,0,.36h-3l0-.3v-.24a7.28,7.28,0,0,1,.79-3.32,6.17,6.17,0,0,1,2.43-2.57,8.06,8.06,0,0,1,4.18-1A7.2,7.2,0,0,1,212.36,98.34Z"/><path class="cls-1" d="M222.05,115.06v3.34h-3v-3.34Z"/><path class="cls-1" d="M236.26,98.37a6.74,6.74,0,0,1,2.51,2.49,7,7,0,0,1,.93,3.58v7.31a7,7,0,0,1-.9,3.54,6.66,6.66,0,0,1-2.48,2.49,6.81,6.81,0,0,1-3.53.92h-.4a6.87,6.87,0,0,1-3.56-.92,6.42,6.42,0,0,1-2.45-2.51,7.2,7.2,0,0,1-.87-3.52v-7.31a7.15,7.15,0,0,1,.91-3.61,6.63,6.63,0,0,1,2.48-2.48,7,7,0,0,1,3.49-.89h.4A6.89,6.89,0,0,1,236.26,98.37Zm-6.6,2.93a3.87,3.87,0,0,0-1.21,2.9V112a3.89,3.89,0,0,0,1.21,2.91A4.07,4.07,0,0,0,232.6,116a4,4,0,0,0,3-1.17,3.93,3.93,0,0,0,1.18-2.89V104.2a3.92,3.92,0,0,0-1.18-2.88,4,4,0,0,0-3-1.18A4.08,4.08,0,0,0,229.66,101.3Z"/><path class="cls-1" d="M284.17,49.83a7.42,7.42,0,0,0,3.73,6.63q3.74,2.35,10.2,2.35,5.79,0,9-2.31a7.18,7.18,0,0,0,3.18-6.08,6,6,0,0,0-1.8-4.62A12,12,0,0,0,304,43.24a55.67,55.67,0,0,0-7.09-1.72,66.88,66.88,0,0,1-8.22-2.05,13,13,0,0,1-5.29-3.32,8.67,8.67,0,0,1-2.18-6.29,10.26,10.26,0,0,1,4.2-8.48q4.19-3.27,12.41-3.27a19.92,19.92,0,0,1,8.9,1.76,12.31,12.31,0,0,1,5.16,4.41,10.15,10.15,0,0,1,1.64,5.41l-.09,1.17h-4.19V29.77a7.71,7.71,0,0,0-2.39-5.24Q304.47,22,297.09,22q-7.14,0-9.36,2.43a7.71,7.71,0,0,0-2.22,5.29,5,5,0,0,0,1.68,3.94,11.16,11.16,0,0,0,4.19,2.31c1.68.53,4,1.11,7,1.72a82.76,82.76,0,0,1,8.39,2.18,13.59,13.59,0,0,1,5.54,3.44,8.7,8.7,0,0,1,2.26,6.3q0,6.87-4.74,10T297,62.67a22.17,22.17,0,0,1-9.95-1.93,12.79,12.79,0,0,1-5.45-4.7A10.46,10.46,0,0,1,280,50.75c0-.67,0-1.17,0-1.51s0-.53,0-.59h4.2A6.14,6.14,0,0,0,284.17,49.83Z"/><path class="cls-1" d="M338.84,62.29a13.09,13.09,0,0,1-3.07.38,8.43,8.43,0,0,1-6.21-2.35q-2.34-2.35-2.34-7V22.81h-4.7V19h4.7l1.51-13.68h2.77V19h10v3.86h-10V53.19c0,2.23.43,3.73,1.3,4.48a5.07,5.07,0,0,0,3.48,1.14,10.65,10.65,0,0,0,2.52-.42,17.25,17.25,0,0,0,2.68-.92v3.77A9.1,9.1,0,0,1,338.84,62.29Z"/><path class="cls-1" d="M385.62,58.81a8.39,8.39,0,0,0,4.2-1.34v3.6a9.31,9.31,0,0,1-5.38,1.6,4.31,4.31,0,0,1-4.19-2.23,13.16,13.16,0,0,1-1.18-6.08,16.43,16.43,0,0,1-6.5,6.29,19.68,19.68,0,0,1-9.19,2,16.21,16.21,0,0,1-9.73-2.73q-3.78-2.73-3.78-9.27,0-6,3.57-8.94a19,19,0,0,1,9.65-3.86,115.58,115.58,0,0,1,16-.88V31.62c0-3.58-.85-6.09-2.55-7.51S371.94,22,367.91,22A16.32,16.32,0,0,0,359,24.11a7.25,7.25,0,0,0-3.36,6.59V32h-4.11a18.89,18.89,0,0,1-.17-2.18,9.86,9.86,0,0,1,4.66-8.6q4.66-3.15,11.87-3.15,7.81,0,11.63,3.1t3.82,9.57V56C383.36,57.88,384.11,58.81,385.62,58.81ZM365.1,41.44a16.8,16.8,0,0,0-8,2.72q-2.94,2.15-2.94,6.59,0,4.2,2.39,6.13c1.6,1.28,4.16,1.93,7.68,1.93a16,16,0,0,0,7.18-1.68,13.54,13.54,0,0,0,5.53-5.08,15.33,15.33,0,0,0,2.14-8.35V40.85A128.87,128.87,0,0,0,365.1,41.44Z"/><path class="cls-1" d="M412.77,62.29a13.09,13.09,0,0,1-3.07.38,8.43,8.43,0,0,1-6.21-2.35c-1.56-1.57-2.35-3.89-2.35-7V22.81h-4.7V19h4.7l1.51-13.68h2.77V19h10v3.86h-10V53.19c0,2.23.44,3.73,1.3,4.48a5.11,5.11,0,0,0,3.49,1.14,10.51,10.51,0,0,0,2.51-.42,17,17,0,0,0,2.69-.92v3.77A9.1,9.1,0,0,1,412.77,62.29Z"/><path class="cls-1" d="M458.08,62.29a13.08,13.08,0,0,1-3.06.38,8.4,8.4,0,0,1-6.21-2.35q-2.35-2.35-2.35-7V22.81h-4.7V19h4.7L448,5.27h2.77V19h10v3.86h-10V53.19c0,2.23.43,3.73,1.3,4.48a5.07,5.07,0,0,0,3.48,1.14,10.58,10.58,0,0,0,2.52-.42,16.89,16.89,0,0,0,2.68-.92v3.77A9,9,0,0,1,458.08,62.29Z"/><path class="cls-1" d="M478.18,60.11a17,17,0,0,1-6.42-7.43A27,27,0,0,1,469.45,41V39.76a27.05,27.05,0,0,1,2.31-11.67,17,17,0,0,1,6.42-7.42,18.52,18.52,0,0,1,18.79,0,17.09,17.09,0,0,1,6.42,7.42,27.05,27.05,0,0,1,2.31,11.67V41a27,27,0,0,1-2.31,11.66A17.07,17.07,0,0,1,497,60.11a18.52,18.52,0,0,1-18.79,0Zm19.38-5.75q3.85-4.44,3.86-12.84V39.26q0-8.4-3.86-12.84a13.43,13.43,0,0,0-20,0q-3.85,4.44-3.86,12.84v2.26q0,8.4,3.86,12.84a13.43,13.43,0,0,0,20,0Z"/><path class="cls-1" d="M524.24,60.11a17,17,0,0,1-6.41-7.43A26.83,26.83,0,0,1,515.52,41V39.76a26.9,26.9,0,0,1,2.31-11.67,17.07,17.07,0,0,1,6.41-7.42,18.54,18.54,0,0,1,18.8,0,17.16,17.16,0,0,1,6.42,7.42,27.05,27.05,0,0,1,2.31,11.67V41a27,27,0,0,1-2.31,11.66A17.13,17.13,0,0,1,543,60.11a18.54,18.54,0,0,1-18.8,0Zm19.39-5.75q3.86-4.44,3.86-12.84V39.26q0-8.4-3.86-12.84a13.43,13.43,0,0,0-20,0q-3.87,4.44-3.86,12.84v2.26q0,8.4,3.86,12.84a13.43,13.43,0,0,0,20,0Z"/><path class="cls-1" d="M564.52,61.83V1.41h4.28V61.83Z"/><path class="cls-1" d="M302.61,115.62a14.07,14.07,0,0,1-9.39,3.08,15.22,15.22,0,0,1-7-1.49,10.2,10.2,0,0,1-4.57-5.34Q280,108,280,101.24V99.91q0-6.78,1.67-10.63a10.24,10.24,0,0,1,4.57-5.34,15.22,15.22,0,0,1,7-1.49,14.21,14.21,0,0,1,9.42,3q3.62,3,3.62,10.43h-2.72c0-4.08-1-6.93-2.83-8.55a11,11,0,0,0-7.49-2.44c-3.36,0-5.94,1-7.76,3.11s-2.72,5.82-2.72,11.26v2.57q0,8.16,2.72,11.27c1.82,2.07,4.4,3.11,7.76,3.11q10.32,0,10.32-10.94h2.72Q306.26,112.54,302.61,115.62Z"/><path class="cls-1" d="M334.8,109.46H316.21l-3.59,8.73h-2.87L324.33,83h2.57l14.57,35.22h-3Zm-17.56-2.52h16.54l-8.17-20.17h-.2Z"/><path class="cls-1" d="M366,91.23a5.22,5.22,0,0,0-2.54-4.69,11.91,11.91,0,0,0-6.5-1.62,12.32,12.32,0,0,0-6.52,1.51,5.23,5.23,0,0,0-2.47,4.8,4.73,4.73,0,0,0,1.29,3.47,8.91,8.91,0,0,0,3.18,2,44.76,44.76,0,0,0,5.14,1.57,53.81,53.81,0,0,1,6.28,2,10,10,0,0,1,4.06,2.92,8,8,0,0,1,1.67,5.31c0,3.53-1.15,6.11-3.47,7.73a15.27,15.27,0,0,1-9,2.44,16.12,16.12,0,0,1-9.25-2.39q-3.5-2.39-3.49-7.72l.05-.93h2.62l-.05,1.39a6,6,0,0,0,2.72,5.47,13.38,13.38,0,0,0,7.19,1.72q10,0,10-7.55a5.58,5.58,0,0,0-1.36-3.9,8.76,8.76,0,0,0-3.34-2.26,53.51,53.51,0,0,0-5.42-1.7,51.35,51.35,0,0,1-6-2,9.8,9.8,0,0,1-3.85-2.8,7.39,7.39,0,0,1-1.59-5,7.2,7.2,0,0,1,3.31-6.47,14.94,14.94,0,0,1,8.34-2.16,14.45,14.45,0,0,1,8.42,2.26c2.16,1.51,3.23,3.84,3.23,7v.67H366Z"/><path class="cls-1" d="M396.92,91.23a5.2,5.2,0,0,0-2.54-4.69,11.87,11.87,0,0,0-6.49-1.62,12.32,12.32,0,0,0-6.52,1.51,5.21,5.21,0,0,0-2.47,4.8,4.73,4.73,0,0,0,1.29,3.47,8.82,8.82,0,0,0,3.18,2,45.13,45.13,0,0,0,5.13,1.57,54.05,54.05,0,0,1,6.29,2,10.08,10.08,0,0,1,4.06,2.92,8,8,0,0,1,1.67,5.31q0,5.3-3.47,7.73a15.28,15.28,0,0,1-9,2.44,16.11,16.11,0,0,1-9.24-2.39q-3.49-2.39-3.49-7.72l.05-.93H378l-.05,1.39a6,6,0,0,0,2.72,5.47,13.35,13.35,0,0,0,7.19,1.72q10,0,10-7.55a5.54,5.54,0,0,0-1.37-3.9,8.65,8.65,0,0,0-3.33-2.26,53.51,53.51,0,0,0-5.42-1.7,52.24,52.24,0,0,1-6.06-2,9.88,9.88,0,0,1-3.85-2.8,7.44,7.44,0,0,1-1.59-5,7.22,7.22,0,0,1,3.31-6.47,15,15,0,0,1,8.35-2.16,14.47,14.47,0,0,1,8.42,2.26q3.23,2.27,3.23,7v.67h-2.57Z"/><path class="cls-1" d="M428.81,109.46H410.22l-3.59,8.73h-2.88L418.33,83h2.57l14.58,35.22h-3Zm-17.56-2.52h16.53l-8.16-20.17h-.21Z"/><path class="cls-1" d="M462.59,118.19,443.08,88.26h-.16v29.93h-2.46V83h2.36l19.61,29.93h.16V83h2.46v35.22Z"/><path class="cls-1" d="M474.81,83H486.1q6.31,0,10,3.82t3.67,13.12v1.28q0,9.24-3.7,13.12t-10,3.88H474.81Zm19.25,29.62q2.93-3.14,2.93-10.93V99.45q0-14-10.89-14h-8.52v30.29h8.52A10.35,10.35,0,0,0,494.06,112.59Z"/><path class="cls-1" d="M533.75,118.26a3.49,3.49,0,0,1-.83.08,3.58,3.58,0,0,1-2.79-1.41c-.81-.94-1.21-2.7-1.21-5.26q0-6.17-2.16-8.19a6.49,6.49,0,0,0-4.46-2H511v16.74h-2.77V83H522.5a10.65,10.65,0,0,1,4.75,1.1,9.52,9.52,0,0,1,3.62,3.08,7.75,7.75,0,0,1,1.39,4.54,8.81,8.81,0,0,1-.82,3.65,9,9,0,0,1-2.29,3.08,6.45,6.45,0,0,1-3.21,1.59v.26c0-.17.52,0,1.57.62a7.77,7.77,0,0,1,2.82,3.1,13.05,13.05,0,0,1,1.26,6.34,18.41,18.41,0,0,0,.36,4.29,3.77,3.77,0,0,0,.74,1.69,6.79,6.79,0,0,0,1.52.85v1A3.36,3.36,0,0,1,533.75,118.26Zm-7.65-20.2a6.74,6.74,0,0,0,2.51-2.49,6.55,6.55,0,0,0,.93-3.41,6.45,6.45,0,0,0-.93-3.39,6.86,6.86,0,0,0-6-3.34H511V99h11.71A6.7,6.7,0,0,0,526.1,98.06Z"/><path class="cls-1" d="M561.83,109.46H543.24l-3.59,8.73h-2.88L551.36,83h2.56l14.58,35.22h-3Zm-17.56-2.52H560.8l-8.16-20.17h-.21Z"/><path class="cls-1" d="M38.81,4.07A19.46,19.46,0,0,1,47,11.92,23.7,23.7,0,0,1,49.83,23.7H41.09q0-6.87-3.8-10.67T26.36,9.24q-8,0-12.22,5T9.94,28.79v8q0,9.63,4.15,14.59t12.27,5q7.77,0,11.34-3.88c2.37-2.59,3.57-6.71,3.57-12.36V39H24V31.11H49.83V52a91.39,91.39,0,0,0,.54,11.42H45.19a54,54,0,0,1-1.78-7.31q-5.8,8.21-17,8.21Q14.5,64.31,7.84,57T1.2,36.82v-8q0-12.85,6.64-20.17T26.36,1.3A26.52,26.52,0,0,1,38.81,4.07Z"/><path class="cls-1" d="M68.76,2.19V55.47H96.87l1.25,7.94H60V2.19Z"/><path class="cls-1" d="M139.5,2.19l23.91,61.22H154l-5.18-13.29H119.51l-5.09,13.29h-8.48L129.86,2.19Zm-5,10.53H134L122.63,42.17h23.12Z"/><path class="cls-1" d="M239.09,2.19V63.41h-8.75v-51h-.54l-21.15,51h-7.4l-21.07-51h-.44v51H171.8V2.19h13.74l19.72,48.19h.36L225.43,2.19Z"/></svg>