<?xml version="1.0" encoding="UTF-8" standalone="no"?>
<svg
   xmlns:dc="http://purl.org/dc/elements/1.1/"
   xmlns:cc="http://creativecommons.org/ns#"
   xmlns:rdf="http://www.w3.org/1999/02/22-rdf-syntax-ns#"
   xmlns:svg="http://www.w3.org/2000/svg"
   xmlns="http://www.w3.org/2000/svg"
   xmlns:sodipodi="http://sodipodi.sourceforge.net/DTD/sodipodi-0.dtd"
   xmlns:inkscape="http://www.inkscape.org/namespaces/inkscape"
   id="Livello_1"
   data-name="Livello 1"
   viewBox="0 0 300 300"
   version="1.1"
   sodipodi:docname="glam-logo-white.svg"
   inkscape:version="0.92.4 (5da689c313, 2019-01-14)">
  <metadata
     id="metadata73">
    <rdf:RDF>
      <cc:Work
         rdf:about="">
        <dc:format>image/svg+xml</dc:format>
        <dc:type
           rdf:resource="http://purl.org/dc/dcmitype/StillImage" />
        <dc:title>Tavola disegno 2 copia 2</dc:title>
      </cc:Work>
    </rdf:RDF>
  </metadata>
  <sodipodi:namedview
     pagecolor="#ffffff"
     bordercolor="#666666"
     borderopacity="1"
     objecttolerance="10"
     gridtolerance="10"
     guidetolerance="10"
     inkscape:pageopacity="0"
     inkscape:pageshadow="2"
     inkscape:window-width="950"
     inkscape:window-height="480"
     id="namedview71"
     showgrid="false"
     inkscape:zoom="0.78666667"
     inkscape:cx="150"
     inkscape:cy="150"
     inkscape:window-x="0"
     inkscape:window-y="0"
     inkscape:window-maximized="0"
     inkscape:current-layer="Livello_1" />
  <defs
     id="defs4">
    <style
       id="style2">.cls-1{fill:#080d5a;}</style>
  </defs>
  <title
     id="title6">Tavola disegno 2 copia 2</title>
  <path
     class="cls-1"
     d="M166.21,242.93l-5,14.1H159l-5-14.1h2.16l4,11.36h.13l4-11.36Z"
     id="path8"
     style="fill:#ffffff" />
  <path
     class="cls-1"
     d="M176.94,242.93l-.27,1.83h-7v4.15H176v1.83h-6.3v4.46h7.09l.28,1.83h-9.39v-14.1Z"
     id="path10"
     style="fill:#ffffff" />
  <path
     class="cls-1"
     d="M188.43,243.81a2.84,2.84,0,0,1,1.21,2.43,3.79,3.79,0,0,1-.73,2.34,2.91,2.91,0,0,1-1.8,1.17v.11a3.41,3.41,0,0,1,1.62,1.35,4.08,4.08,0,0,1,.64,2.32,9.05,9.05,0,0,0,.12,1.71,1.84,1.84,0,0,0,.33.8,1.35,1.35,0,0,0,.6.35V257a2.43,2.43,0,0,1-1,.19,2,2,0,0,1-1.54-.59,3.26,3.26,0,0,1-.55-2.21,4.26,4.26,0,0,0-.69-2.59,2.05,2.05,0,0,0-1.72-.94h-3.57V257h-2v-14.1h6A5.1,5.1,0,0,1,188.43,243.81Zm-7.05.95V249h4a2.32,2.32,0,0,0,1.56-.59,1.87,1.87,0,0,0,.68-1.48v-.09a2,2,0,0,0-.61-1.48,2.24,2.24,0,0,0-1.63-.59Z"
     id="path12"
     style="fill:#ffffff" />
  <path
     class="cls-1"
     d="M200.82,243.75a3.47,3.47,0,0,1,1.33,2.92v.25h-2v-.31a1.71,1.71,0,0,0-.81-1.52,3.71,3.71,0,0,0-2.11-.54A4.45,4.45,0,0,0,195,245a1.52,1.52,0,0,0-.81,1.38,1.42,1.42,0,0,0,.46,1.11,3.19,3.19,0,0,0,1.15.68c.46.17,1.09.35,1.9.56a21.5,21.5,0,0,1,2.53.8,4.37,4.37,0,0,1,1.65,1.17,3,3,0,0,1,.69,2.07,3.91,3.91,0,0,1-1.41,3.36,7.84,7.84,0,0,1-7.91,0,3.7,3.7,0,0,1-1.41-3.13l0-.41h2l0,.43a2,2,0,0,0,.89,1.78,4.51,4.51,0,0,0,2.48.58,4.58,4.58,0,0,0,2.43-.56,1.75,1.75,0,0,0,.89-1.55A1.73,1.73,0,0,0,200,252a3.27,3.27,0,0,0-1.21-.75c-.49-.18-1.15-.37-2-.59a25.87,25.87,0,0,1-2.47-.78,4.14,4.14,0,0,1-1.58-1.14,3,3,0,0,1-.66-2,3.47,3.47,0,0,1,1.38-3,6.17,6.17,0,0,1,3.68-1A5.83,5.83,0,0,1,200.82,243.75Z"
     id="path14"
     style="fill:#ffffff" />
  <path
     class="cls-1"
     d="M209.48,242.93v1.83h-1.64V255.2h1.64V257h-5.3V255.2h1.65V244.76h-1.65v-1.83Z"
     id="path16"
     style="fill:#ffffff" />
  <path
     class="cls-1"
     d="M220.21,243.49a5.07,5.07,0,0,1,2,2.18,7.32,7.32,0,0,1,.73,3.38v1.85a7.29,7.29,0,0,1-.73,3.38,5.15,5.15,0,0,1-2,2.19,6.54,6.54,0,0,1-6.12,0,5.23,5.23,0,0,1-2.05-2.19,7.42,7.42,0,0,1-.73-3.38v-1.85a7.45,7.45,0,0,1,.73-3.38,5.15,5.15,0,0,1,2.05-2.18,6.54,6.54,0,0,1,6.12,0Zm-5.88,2.21a5,5,0,0,0-1,3.35v1.85a5.05,5.05,0,0,0,1,3.35,3.52,3.52,0,0,0,2.85,1.15,3.55,3.55,0,0,0,2.81-1.14,4.94,4.94,0,0,0,1-3.36v-1.85a5.07,5.07,0,0,0-1-3.35,4.06,4.06,0,0,0-5.66,0Z"
     id="path18"
     style="fill:#ffffff" />
  <path
     class="cls-1"
     d="M236.09,242.93V257h-1.71l-6.88-10.32-.06,0V257h-1.83v-14.1h1.77l6.82,10.19.06,0V242.93Z"
     id="path20"
     style="fill:#ffffff" />
  <path
     class="cls-1"
     d="M251,243.32a4,4,0,0,1,1.55,1.54,4.16,4.16,0,0,1,.51,2,4.45,4.45,0,0,1-.6,2.42,7.69,7.69,0,0,1-1.91,1.95l-3.92,3a5.24,5.24,0,0,0-.73.59c-.17.17-.26.29-.26.38h7.48V257H243.4v-.5a4.19,4.19,0,0,1,.51-2,4.74,4.74,0,0,1,1.4-1.63l4.09-3.09a4.79,4.79,0,0,0,1.24-1.37,3.14,3.14,0,0,0,.37-1.5,2.34,2.34,0,0,0-1.22-2.05,2.88,2.88,0,0,0-1.43-.34,3.15,3.15,0,0,0-1.53.37,2.68,2.68,0,0,0-1,1,2.55,2.55,0,0,0-.37,1.36v.28a.83.83,0,0,0,0,.25h-2l0-.21v-.16a5,5,0,0,1,.54-2.27,4.24,4.24,0,0,1,1.66-1.76,5.53,5.53,0,0,1,2.86-.67A4.87,4.87,0,0,1,251,243.32Z"
     id="path22"
     style="fill:#ffffff" />
  <path
     class="cls-1"
     d="M257.58,254.74V257h-2.07v-2.29Z"
     id="path24"
     style="fill:#ffffff" />
  <path
     class="cls-1"
     d="M267.29,243.34a4.53,4.53,0,0,1,1.71,1.71,4.68,4.68,0,0,1,.64,2.44v5a4.79,4.79,0,0,1-.62,2.42,4.45,4.45,0,0,1-1.69,1.7,4.7,4.7,0,0,1-2.42.63h-.26a4.74,4.74,0,0,1-2.44-.63,4.36,4.36,0,0,1-1.67-1.71,4.92,4.92,0,0,1-.6-2.41v-5a4.79,4.79,0,0,1,.63-2.46,4.52,4.52,0,0,1,1.69-1.7,4.82,4.82,0,0,1,2.39-.6h.26A4.71,4.71,0,0,1,267.29,243.34Zm-4.51,2a2.6,2.6,0,0,0-.82,2v5.3a2.63,2.63,0,0,0,.82,2,3,3,0,0,0,4.05,0,2.68,2.68,0,0,0,.8-2v-5.3a2.68,2.68,0,0,0-.8-2,2.95,2.95,0,0,0-4.05,0Z"
     id="path26"
     style="fill:#ffffff" />
  <path
     class="cls-1"
     d="M34.58,159.78a6.13,6.13,0,0,0,3.08,5.47,15.74,15.74,0,0,0,8.41,1.94q4.78,0,7.41-1.9a5.92,5.92,0,0,0,2.64-5,4.94,4.94,0,0,0-1.49-3.8A9.83,9.83,0,0,0,51,154.35a47.33,47.33,0,0,0-5.85-1.43,54.25,54.25,0,0,1-6.79-1.69A10.7,10.7,0,0,1,34,148.49a7.15,7.15,0,0,1-1.8-5.19,8.46,8.46,0,0,1,3.46-7q3.47-2.7,10.25-2.7a16.38,16.38,0,0,1,7.34,1.45,10.21,10.21,0,0,1,4.26,3.64,8.37,8.37,0,0,1,1.35,4.46l-.07,1H55.28v-.9a6.33,6.33,0,0,0-2-4.33c-1.31-1.4-4-2.11-8.07-2.11s-6.49.67-7.72,2a6.36,6.36,0,0,0-1.83,4.36,4.19,4.19,0,0,0,1.38,3.26,9.36,9.36,0,0,0,3.47,1.9q2.07.66,5.74,1.42a66,66,0,0,1,6.93,1.8,11.17,11.17,0,0,1,4.57,2.84,7.18,7.18,0,0,1,1.87,5.19q0,5.69-3.92,8.24t-10.55,2.56A18.24,18.24,0,0,1,37,168.78a10.48,10.48,0,0,1-4.5-3.88,8.58,8.58,0,0,1-1.35-4.36c0-.55,0-1,0-1.24s0-.44,0-.49h3.46A4.87,4.87,0,0,0,34.58,159.78Z"
     id="path28"
     style="fill:#ffffff" />
  <path
     class="cls-1"
     d="M79.69,170.06a10.47,10.47,0,0,1-2.52.31A6.93,6.93,0,0,1,72,168.44a7.82,7.82,0,0,1-1.94-5.75V137.48H66.22V134.3H70.1L71.35,123h2.29V134.3h8.24v3.18H73.64v25.07c0,1.85.35,3.08,1.07,3.7a4.17,4.17,0,0,0,2.87.94,8.81,8.81,0,0,0,2.08-.35,13.9,13.9,0,0,0,2.22-.76v3.12A7.7,7.7,0,0,1,79.69,170.06Z"
     id="path30"
     style="fill:#ffffff" />
  <path
     class="cls-1"
     d="M118.3,167.19a6.88,6.88,0,0,0,3.46-1.11v3a7.7,7.7,0,0,1-4.43,1.31,3.58,3.58,0,0,1-3.47-1.83,10.92,10.92,0,0,1-1-5,13.64,13.64,0,0,1-5.36,5.19,16.29,16.29,0,0,1-7.58,1.66,13.42,13.42,0,0,1-8-2.25q-3.1-2.25-3.11-7.65,0-4.91,2.94-7.37a15.72,15.72,0,0,1,8-3.19,96.82,96.82,0,0,1,13.19-.72v-4.44c0-2.95-.7-5-2.11-6.19s-3.77-1.77-7.1-1.77a13.43,13.43,0,0,0-7.33,1.77A6,6,0,0,0,93.58,144v1.11h-3.4a15.76,15.76,0,0,1-.14-1.8,8.15,8.15,0,0,1,3.85-7.1,17.12,17.12,0,0,1,9.79-2.59c4.3,0,7.49.85,9.6,2.56s3.15,4.34,3.15,7.89V164.9C116.43,166.43,117.05,167.19,118.3,167.19Zm-16.93-14.33a13.76,13.76,0,0,0-6.62,2.25,6.28,6.28,0,0,0-2.42,5.43q0,3.47,2,5.06t6.34,1.59a13.11,13.11,0,0,0,5.92-1.39,11.2,11.2,0,0,0,4.57-4.19,12.61,12.61,0,0,0,1.76-6.88v-2.36A103.92,103.92,0,0,0,101.37,152.86Z"
     id="path32"
     style="fill:#ffffff" />
  <path
     class="cls-1"
     d="M140.7,170.06a10.61,10.61,0,0,1-2.53.31,7,7,0,0,1-5.13-1.93,7.82,7.82,0,0,1-1.93-5.75V137.48h-3.88V134.3h3.88L132.35,123h2.29V134.3h8.24v3.18h-8.24v25.07c0,1.85.35,3.08,1.07,3.7a4.17,4.17,0,0,0,2.87.94,8.81,8.81,0,0,0,2.08-.35,13.24,13.24,0,0,0,2.22-.76v3.12A7.63,7.63,0,0,1,140.7,170.06Z"
     id="path34"
     style="fill:#ffffff" />
  <path
     class="cls-1"
     d="M178.09,170.06a10.61,10.61,0,0,1-2.53.31,7,7,0,0,1-5.13-1.93,7.82,7.82,0,0,1-1.93-5.75V137.48h-3.88V134.3h3.88L169.74,123H172V134.3h8.24v3.18H172v25.07c0,1.85.35,3.08,1.07,3.7a4.19,4.19,0,0,0,2.87.94,8.81,8.81,0,0,0,2.08-.35,13.24,13.24,0,0,0,2.22-.76v3.12A7.63,7.63,0,0,1,178.09,170.06Z"
     id="path36"
     style="fill:#ffffff" />
  <path
     class="cls-1"
     d="M194.67,168.26a14.14,14.14,0,0,1-5.3-6.13,22.25,22.25,0,0,1-1.9-9.62v-1a22.25,22.25,0,0,1,1.9-9.62,14.14,14.14,0,0,1,5.3-6.13,15.31,15.31,0,0,1,15.51,0,14.14,14.14,0,0,1,5.3,6.13,22.25,22.25,0,0,1,1.9,9.62v1a22.25,22.25,0,0,1-1.9,9.62,14.14,14.14,0,0,1-5.3,6.13,15.31,15.31,0,0,1-15.51,0Zm16-4.74q3.18-3.68,3.18-10.6v-1.86q0-6.93-3.18-10.6a11.09,11.09,0,0,0-16.48,0q-3.19,3.67-3.19,10.6v1.86q0,6.93,3.19,10.6a11.09,11.09,0,0,0,16.48,0Z"
     id="path38"
     style="fill:#ffffff" />
  <path
     class="cls-1"
     d="M232.68,168.26a14.06,14.06,0,0,1-5.29-6.13,22.1,22.1,0,0,1-1.91-9.62v-1a22.1,22.1,0,0,1,1.91-9.62,14.06,14.06,0,0,1,5.29-6.13,15.31,15.31,0,0,1,15.51,0,14.14,14.14,0,0,1,5.3,6.13,22.24,22.24,0,0,1,1.91,9.62v1a22.24,22.24,0,0,1-1.91,9.62,14.14,14.14,0,0,1-5.3,6.13,15.31,15.31,0,0,1-15.51,0Zm16-4.74q3.18-3.68,3.18-10.6v-1.86q0-6.93-3.18-10.6a11.09,11.09,0,0,0-16.48,0q-3.19,3.67-3.19,10.6v1.86q0,6.93,3.19,10.6a11.09,11.09,0,0,0,16.48,0Z"
     id="path40"
     style="fill:#ffffff" />
  <path
     class="cls-1"
     d="M265.92,169.68V119.83h3.53v49.85Z"
     id="path42"
     style="fill:#ffffff" />
  <path
     class="cls-1"
     d="M50.05,218.18a11.63,11.63,0,0,1-7.75,2.54,12.57,12.57,0,0,1-5.79-1.23,8.5,8.5,0,0,1-3.77-4.41,22.71,22.71,0,0,1-1.37-8.76v-1.11a22.8,22.8,0,0,1,1.37-8.77,8.52,8.52,0,0,1,3.77-4.4,12.57,12.57,0,0,1,5.79-1.23,11.68,11.68,0,0,1,7.77,2.5c2,1.67,3,4.53,3,8.6H50.81q0-5-2.33-7a9.07,9.07,0,0,0-6.18-2,8.06,8.06,0,0,0-6.4,2.57q-2.25,2.57-2.25,9.3v2.11q0,6.74,2.25,9.3a8.06,8.06,0,0,0,6.4,2.57q8.51,0,8.51-9h2.25C53.06,213.64,52.05,216.48,50.05,218.18Z"
     id="path44"
     style="fill:#ffffff" />
  <path
     class="cls-1"
     d="M76.61,213.09H61.27l-3,7.21H55.94l12-29.07h2.12l12,29.07h-2.5ZM62.12,211H75.76L69,194.37h-.17Z"
     id="path46"
     style="fill:#ffffff" />
  <path
     class="cls-1"
     d="M102.37,198.05a4.31,4.31,0,0,0-2.1-3.87,9.81,9.81,0,0,0-5.36-1.34,10.23,10.23,0,0,0-5.38,1.25,4.31,4.31,0,0,0-2,4,3.89,3.89,0,0,0,1.06,2.86,7.38,7.38,0,0,0,2.62,1.7,37.07,37.07,0,0,0,4.24,1.29,47.78,47.78,0,0,1,5.19,1.63A8.37,8.37,0,0,1,104,208a6.6,6.6,0,0,1,1.37,4.38q0,4.36-2.86,6.38a12.62,12.62,0,0,1-7.43,2,13.3,13.3,0,0,1-7.63-2q-2.88-2-2.88-6.38l0-.76h2.16l0,1.14a5,5,0,0,0,2.25,4.52,11,11,0,0,0,5.93,1.42q8.22,0,8.22-6.23a4.58,4.58,0,0,0-1.13-3.22,7.06,7.06,0,0,0-2.75-1.86,41.81,41.81,0,0,0-4.47-1.4,45.32,45.32,0,0,1-5-1.61,8.16,8.16,0,0,1-3.17-2.31,6.15,6.15,0,0,1-1.32-4.13A5.93,5.93,0,0,1,88,192.59a12.32,12.32,0,0,1,6.88-1.78,11.92,11.92,0,0,1,6.95,1.86,6.57,6.57,0,0,1,2.67,5.77V199h-2.12Z"
     id="path48"
     style="fill:#ffffff" />
  <path
     class="cls-1"
     d="M127.87,198.05a4.32,4.32,0,0,0-2.09-3.87,9.85,9.85,0,0,0-5.37-1.34,10.23,10.23,0,0,0-5.38,1.25,4.33,4.33,0,0,0-2,4,3.89,3.89,0,0,0,1.06,2.86,7.43,7.43,0,0,0,2.63,1.7,36.19,36.19,0,0,0,4.23,1.29,47.78,47.78,0,0,1,5.19,1.63,8.31,8.31,0,0,1,3.35,2.42,6.55,6.55,0,0,1,1.38,4.38c0,2.91-1,5-2.86,6.38a12.68,12.68,0,0,1-7.44,2,13.29,13.29,0,0,1-7.62-2q-2.88-2-2.88-6.38l0-.76h2.16l0,1.14a4.94,4.94,0,0,0,2.24,4.52,11,11,0,0,0,5.93,1.42q8.22,0,8.22-6.23a4.58,4.58,0,0,0-1.12-3.22,7.17,7.17,0,0,0-2.76-1.86,40.79,40.79,0,0,0-4.46-1.4,44.62,44.62,0,0,1-5-1.61,8.12,8.12,0,0,1-3.18-2.31,6.14,6.14,0,0,1-1.31-4.13,6,6,0,0,1,2.73-5.34,12.32,12.32,0,0,1,6.88-1.78,11.9,11.9,0,0,1,6.95,1.86,6.57,6.57,0,0,1,2.67,5.77V199h-2.12Z"
     id="path50"
     style="fill:#ffffff" />
  <path
     class="cls-1"
     d="M154.18,213.09H138.84l-3,7.21H133.5l12-29.07h2.12l12,29.07h-2.5ZM139.69,211h13.64l-6.73-16.65h-.17Z"
     id="path52"
     style="fill:#ffffff" />
  <path
     class="cls-1"
     d="M182.06,220.3,166,195.6h-.13v24.7h-2V191.23h1.94l16.19,24.7h.13v-24.7h2V220.3Z"
     id="path54"
     style="fill:#ffffff" />
  <path
     class="cls-1"
     d="M192.14,191.23h9.32a10.91,10.91,0,0,1,8.24,3.16c2,2.1,3,5.71,3,10.82v1.06q0,7.64-3.06,10.83a10.81,10.81,0,0,1-8.21,3.2h-9.32ZM208,215.68q2.41-2.58,2.42-9v-1.82q0-11.57-9-11.56h-7v25h7A8.56,8.56,0,0,0,208,215.68Z"
     id="path56"
     style="fill:#ffffff" />
  <path
     class="cls-1"
     d="M240.77,220.36a3.44,3.44,0,0,1-.68.06,3,3,0,0,1-2.31-1.16c-.66-.78-1-2.23-1-4.34,0-3.39-.6-5.65-1.78-6.76a5.36,5.36,0,0,0-3.69-1.68H222V220.3h-2.29V191.23h11.82a8.81,8.81,0,0,1,3.92.91,7.81,7.81,0,0,1,3,2.55,6.35,6.35,0,0,1,1.14,3.75,7.15,7.15,0,0,1-.67,3A7.72,7.72,0,0,1,237,204a5.48,5.48,0,0,1-2.65,1.31v.21q0-.21,1.29.51a6.4,6.4,0,0,1,2.33,2.56,10.81,10.81,0,0,1,1,5.23,15,15,0,0,0,.3,3.54,3,3,0,0,0,.61,1.4,5.8,5.8,0,0,0,1.25.7v.8A1.66,1.66,0,0,1,240.77,220.36Zm-6.31-16.67a5.6,5.6,0,0,0,2.07-2.06,5.42,5.42,0,0,0,.77-2.81,5.34,5.34,0,0,0-.77-2.8,5.49,5.49,0,0,0-2.05-2,5.6,5.6,0,0,0-2.86-.74H222v11.18h9.66A5.55,5.55,0,0,0,234.46,203.69Z"
     id="path58"
     style="fill:#ffffff" />
  <path
     class="cls-1"
     d="M263.94,213.09H248.61l-3,7.21h-2.37l12-29.07h2.12l12,29.07H267ZM249.46,211H263.1l-6.74-16.65h-.17Z"
     id="path60"
     style="fill:#ffffff" />
  <path
     class="cls-1"
     d="M68.16,45.55a19.48,19.48,0,0,1,8.21,7.89,23.83,23.83,0,0,1,2.87,11.84H70.45q0-6.9-3.81-10.72t-11-3.81q-8.07,0-12.28,5T39.15,70.4v8.07q0,9.69,4.17,14.66t12.33,5q7.82,0,11.39-3.9t3.59-12.42V80.62H53.23V72.73h26v21a92.48,92.48,0,0,0,.54,11.48h-5.2a53.26,53.26,0,0,1-1.79-7.36q-5.83,8.25-17.14,8.25-11.92,0-18.61-7.31T30.36,78.47V70.4q0-12.93,6.68-20.28t18.61-7.35A26.71,26.71,0,0,1,68.16,45.55Z"
     id="path62"
     style="fill:#ffffff" />
  <path
     class="cls-1"
     d="M98.26,43.67V97.21h28.26l1.25,8H89.47V43.67Z"
     id="path64"
     style="fill:#ffffff" />
  <path
     class="cls-1"
     d="M169.36,43.67l24,61.53h-9.51l-5.2-13.37H149.27l-5.11,13.37h-8.53l24-61.53Zm-5,10.58h-.54l-11.39,29.6h23.23Z"
     id="path66"
     style="fill:#ffffff" />
  <path
     class="cls-1"
     d="M269.45,43.67V105.2h-8.79V54h-.54L238.87,105.2h-7.45L210.25,54h-.45V105.2h-8V43.67h13.81L235.46,92.1h.36l19.91-48.43Z"
     id="path68"
     style="fill:#ffffff" />
</svg>
