<svg id="Livello_1" data-name="Livello 1" xmlns="http://www.w3.org/2000/svg" viewBox="0 0 979.01 884.3"><defs><style>.cls-1{fill:#080d5a;}</style></defs><title>Tavola disegno 2</title><path class="cls-1" d="M35.13,478.52q0,13.91,12.15,21.55t33.14,7.64q18.83,0,29.19-7.5T120,480.43q0-9.56-5.87-15a39.09,39.09,0,0,0-14.46-8.32,183.39,183.39,0,0,0-23.05-5.59,215.43,215.43,0,0,1-26.73-6.69,42.16,42.16,0,0,1-17.2-10.77q-7.09-7.37-7.09-20.46,0-16.92,13.65-27.56T79.6,375.39q17.46,0,28.91,5.73t16.79,14.33A33,33,0,0,1,130.62,413l-.27,3.82H116.7v-3.55q0-8.73-7.77-17.05t-31.78-8.32q-23.19,0-30.43,7.92T39.5,413A16.41,16.41,0,0,0,45,425.86a36.47,36.47,0,0,0,13.63,7.51Q66.78,436,81.23,439a259.94,259.94,0,0,1,27.28,7.09,44,44,0,0,1,18,11.19q7.36,7.63,7.36,20.46,0,22.37-15.41,32.46t-41.6,10.1q-19.93,0-32.34-6.28T26.81,498.71q-5.32-9-5.32-17.19c0-2.18,0-3.82.14-4.91s.13-1.73.13-1.91H35.41A19.79,19.79,0,0,0,35.13,478.52Z"/><path class="cls-1" d="M212.88,519a42,42,0,0,1-10,1.23q-12.56,0-20.19-7.64T175.09,490V390.67H159.81V378.12h15.28L180,333.65h9v44.47h32.47v12.55H189v98.76q0,10.92,4.23,14.6t11.32,3.68a34.3,34.3,0,0,0,8.19-1.36,54.2,54.2,0,0,0,8.73-3v12.28A29.74,29.74,0,0,1,212.88,519Z"/><path class="cls-1" d="M365,507.71q6.29,0,13.65-4.37v11.73a30.35,30.35,0,0,1-17.47,5.19q-9.81,0-13.63-7.23t-3.83-19.78q-8.44,13.9-21.14,20.46t-29.87,6.55q-19.38,0-31.65-8.87t-12.28-30.14q0-19.38,11.6-29.06t31.37-12.55q19.79-2.86,52-2.86V419.32q0-17.46-8.32-24.42t-28-7q-18,0-28.92,7t-10.91,21.41v4.37H254.2a58.47,58.47,0,0,1-.55-7.09q0-17.73,15.15-28t38.6-10.23q25.37,0,37.79,10.1t12.41,31.1v82.12Q357.6,507.71,365,507.71Zm-66.7-56.48q-16.5,1.92-26.05,8.87t-9.55,21.42q0,13.65,7.77,19.91t25,6.28a52,52,0,0,0,23.32-5.46,44.2,44.2,0,0,0,18-16.5q6.94-11.06,6.95-27.15v-9.27Q314.76,449.33,298.26,451.23Z"/><path class="cls-1" d="M453.22,519a42,42,0,0,1-10,1.23q-12.56,0-20.19-7.64T415.43,490V390.67H400.15V378.12h15.28l4.91-44.47h9v44.47h32.46v12.55H429.35v98.76q0,10.92,4.23,14.6t11.31,3.68a34.22,34.22,0,0,0,8.19-1.36,54.2,54.2,0,0,0,8.73-3v12.28A29.74,29.74,0,0,1,453.22,519Z"/><path class="cls-1" d="M600.54,519a42,42,0,0,1-10,1.23q-12.55,0-20.19-7.64T562.75,490V390.67H547.47V378.12h15.28l4.91-44.47h9v44.47h32.46v12.55H576.67v98.76q0,10.92,4.22,14.6t11.32,3.68a34.3,34.3,0,0,0,8.19-1.36,54.2,54.2,0,0,0,8.73-3v12.28A29.74,29.74,0,0,1,600.54,519Z"/><path class="cls-1" d="M665.87,511.94q-13.36-8.32-20.87-24.15t-7.5-37.92v-4.09q0-22.09,7.5-37.92t20.87-24.15q13.36-8.31,30.56-8.32A56.68,56.68,0,0,1,727,383.71q13.37,8.32,20.88,24.15t7.5,37.92v4.09q0,22.1-7.5,37.92T727,511.94q-13.38,8.32-30.55,8.32T665.87,511.94Zm63-18.69q12.55-14.46,12.55-41.74v-7.37q0-27.27-12.55-41.74t-32.46-14.46q-19.92,0-32.46,14.46t-12.56,41.74v7.37q0,27.28,12.56,41.74t32.46,14.46Q716.34,507.71,728.89,493.25Z"/><path class="cls-1" d="M815.64,511.94q-13.36-8.32-20.87-24.15t-7.5-37.92v-4.09q0-22.09,7.5-37.92t20.87-24.15q13.36-8.31,30.56-8.32a56.68,56.68,0,0,1,30.55,8.32q13.37,8.32,20.87,24.15t7.51,37.92v4.09q0,22.1-7.51,37.92t-20.87,24.15q-13.38,8.32-30.55,8.32T815.64,511.94Zm63-18.69q12.55-14.46,12.55-41.74v-7.37q0-27.27-12.55-41.74T846.2,387.94q-19.92,0-32.47,14.46t-12.55,41.74v7.37q0,27.28,12.55,41.74t32.47,14.46Q866.11,507.71,878.66,493.25Z"/><path class="cls-1" d="M946.59,517.53V321.1h13.92V517.53Z"/><path class="cls-1" d="M96.07,708.6q-11.83,10-30.54,10-13.37,0-22.79-4.84T27.89,696.41q-5.41-12.51-5.42-34.55v-4.33q0-22,5.42-34.56t14.85-17.36q9.43-4.83,22.79-4.84,18.87,0,30.63,9.85t11.76,33.89H99.08q0-19.86-9.18-27.8t-24.37-7.93q-16.37,0-25.2,10.11t-8.85,36.63v8.35q0,26.53,8.85,36.63t25.2,10.1q33.56,0,33.55-35.55h8.84Q107.92,698.59,96.07,708.6Z"/><path class="cls-1" d="M200.73,688.57H140.3l-11.68,28.37h-9.35l47.41-114.5H175l47.4,114.5h-9.85Zm-57.09-8.18h53.75L170.85,614.8h-.67Z"/><path class="cls-1" d="M302.21,629.32q0-10-8.26-15.28t-21.12-5.26q-13.18,0-21.2,4.93t-8,15.61q0,7,4.18,11.26a29,29,0,0,0,10.35,6.68,145.82,145.82,0,0,0,16.69,5.09,184,184,0,0,1,20.44,6.43,33,33,0,0,1,13.19,9.51q5.41,6.44,5.42,17.27,0,17.19-11.26,25.12t-29.29,7.93q-18.7,0-30-7.75t-11.35-25.13l.17-3h8.51l-.17,4.5q0,12.19,8.85,17.78t23.36,5.59q32.38,0,32.38-24.53,0-7.85-4.42-12.69A28.49,28.49,0,0,0,289.77,666a176,176,0,0,0-17.61-5.51,175.61,175.61,0,0,1-19.69-6.34,32.28,32.28,0,0,1-12.52-9.1q-5.17-6.09-5.17-16.27,0-14,10.76-21t27.12-7q16.88,0,27.38,7.35t10.52,22.7V633h-8.35Z"/><path class="cls-1" d="M402.69,629.32q0-10-8.26-15.28t-21.12-5.26q-13.19,0-21.2,4.93t-8,15.61q0,7,4.18,11.26a29.18,29.18,0,0,0,10.35,6.68,145.82,145.82,0,0,0,16.69,5.09,184,184,0,0,1,20.44,6.43A33,33,0,0,1,409,668.29q5.42,6.44,5.42,17.27,0,17.19-11.26,25.12t-29.29,7.93q-18.7,0-30.05-7.75t-11.35-25.13l.17-3h8.51l-.17,4.5q0,12.19,8.85,17.78t23.37,5.59q32.39,0,32.38-24.53,0-7.85-4.43-12.69A28.49,28.49,0,0,0,390.25,666a176.57,176.57,0,0,0-17.6-5.51,175.2,175.2,0,0,1-19.7-6.34,32.28,32.28,0,0,1-12.52-9.1q-5.18-6.09-5.17-16.27,0-14,10.77-21t27.12-7q16.86,0,27.37,7.35T411,630.82V633h-8.35Z"/><path class="cls-1" d="M506.34,688.57H445.92l-11.68,28.37h-9.35l47.4-114.5h8.35L528,716.94h-9.85Zm-57.08-8.18H503L476.46,614.8h-.66Z"/><path class="cls-1" d="M616.18,716.94l-63.44-97.3h-.5v97.3h-8V602.44h7.68l63.76,97.31h.51V602.44h8v114.5Z"/><path class="cls-1" d="M655.89,602.44h36.72q20.53,0,32.46,12.44T737,657.53v4.17q0,30-12,42.64t-32.38,12.6H655.89Zm62.59,96.31Q728,688.58,728,663.2V656q0-45.56-35.39-45.57H664.9v98.48h27.71Q709,708.93,718.48,698.75Z"/><path class="cls-1" d="M847.5,717.2a13.23,13.23,0,0,1-2.67.24c-3.45,0-6.48-1.52-9.09-4.59s-3.93-8.76-3.93-17.1q0-20-7-26.62c-4.68-4.4-9.51-6.6-14.53-6.6H773.4v54.41h-9V602.44H811A34.4,34.4,0,0,1,826.39,606a30.75,30.75,0,0,1,11.77,10,25.11,25.11,0,0,1,4.51,14.77A28.29,28.29,0,0,1,840,642.67a29.51,29.51,0,0,1-7.43,10,21.23,21.23,0,0,1-10.43,5.18v.83c0-.55,1.69.11,5.09,2s6.45,5.26,9.18,10.09,4.09,11.72,4.09,20.61q0,9.52,1.16,14t2.43,5.51a23,23,0,0,0,4.92,2.75v3.17A8.54,8.54,0,0,1,847.5,717.2Zm-24.86-65.68a22.27,22.27,0,0,0,8.17-8.1,21.39,21.39,0,0,0,3-11.1,21,21,0,0,0-3-11,22.32,22.32,0,0,0-19.36-10.85H773.4v44.07h38.05A21.93,21.93,0,0,0,822.64,651.52Z"/><path class="cls-1" d="M938.81,688.57H878.38L866.7,716.94h-9.35l47.41-114.5h8.35l47.4,114.5h-9.85Zm-57.08-8.18h53.75L908.93,614.8h-.66Z"/><path class="cls-1" d="M537.31,808.27,516.79,866H508l-20.52-57.69h8.83l16.23,46.5h.5l16.32-46.5Z"/><path class="cls-1" d="M581.21,808.27l-1.09,7.48H551.6v17h25.82v7.48H551.6v18.25h29L581.8,866H543.37V808.27Z"/><path class="cls-1" d="M628.27,811.88a11.65,11.65,0,0,1,4.91,9.93,15.43,15.43,0,0,1-3,9.58,11.88,11.88,0,0,1-7.36,4.8v.42a14.11,14.11,0,0,1,6.64,5.55,16.83,16.83,0,0,1,2.61,9.5,35.46,35.46,0,0,0,.51,7,7.17,7.17,0,0,0,1.34,3.28,5.37,5.37,0,0,0,2.44,1.43v2.36a10.46,10.46,0,0,1-4,.76,8.26,8.26,0,0,1-6.3-2.4q-2.26-2.4-2.27-9,0-6.81-2.82-10.64a8.45,8.45,0,0,0-7-3.83H599.37V866h-8.23V808.27h24.55Q623.35,808.27,628.27,811.88Zm-28.9,3.87v17.32h16.41a9.39,9.39,0,0,0,6.38-2.43,7.74,7.74,0,0,0,2.79-6.06v-.34a8.06,8.06,0,0,0-2.53-6.09,9.24,9.24,0,0,0-6.64-2.4Z"/><path class="cls-1" d="M679,811.63q5.41,4.2,5.42,11.94v1h-8.24v-1.26a7,7,0,0,0-3.28-6.22,15.35,15.35,0,0,0-8.66-2.19q-6,0-9.3,2a6.25,6.25,0,0,0-3.32,5.67,6,6,0,0,0,1.89,4.55,13.57,13.57,0,0,0,4.71,2.77q2.84,1,7.78,2.27a89.94,89.94,0,0,1,10.35,3.28,17.9,17.9,0,0,1,6.77,4.79,12.41,12.41,0,0,1,2.82,8.5q0,9.42-5.76,13.75T664,866.8q-10.44,0-16.19-4.41T642,849.56l.09-1.68h8.24l-.08,1.76a8.1,8.1,0,0,0,3.66,7.28q3.65,2.4,10.13,2.4,6.32,0,10-2.32a7.14,7.14,0,0,0,3.66-6.35,7,7,0,0,0-2-5.17,13.51,13.51,0,0,0-5-3.07c-2-.73-4.69-1.54-8.11-2.44a91.79,91.79,0,0,1-10.09-3.19,16.54,16.54,0,0,1-6.48-4.67,12.35,12.35,0,0,1-2.69-8.28q0-8.33,5.63-12.37t15.06-4Q673.56,807.43,679,811.63Z"/><path class="cls-1" d="M714.43,808.27v7.48H707.7v42.72h6.73V866h-21.7v-7.49h6.72V815.75h-6.72v-7.48Z"/><path class="cls-1" d="M758.33,810.54a21.24,21.24,0,0,1,8.36,9,30,30,0,0,1,3,13.84v7.57a29.91,29.91,0,0,1-3,13.83,21.21,21.21,0,0,1-8.36,9,26.82,26.82,0,0,1-25.07,0,21.09,21.09,0,0,1-8.36-9,30,30,0,0,1-3-13.83v-7.57a30.08,30.08,0,0,1,3-13.84,21.12,21.12,0,0,1,8.36-9,26.82,26.82,0,0,1,25.07,0Zm-24.05,9.08c-2.76,3.14-4.12,7.71-4.12,13.71v7.57c0,6,1.32,10.57,4,13.71s6.54,4.71,11.64,4.71q7.41,0,11.53-4.67t4.12-13.75v-7.57q0-9-4-13.71t-11.66-4.71Q738.4,814.91,734.28,819.62Z"/><path class="cls-1" d="M823.34,808.27V866h-7l-28.17-42.22-.25.09V866h-7.49V808.27h7.23L815.6,850l.26-.08V808.27Z"/><path class="cls-1" d="M879.1,858.47h15.14V866H855.72v-7.49h15.13V819.28h-15.3V813.9a66.08,66.08,0,0,0,20.35-5.63h3.2Z"/><path class="cls-1" d="M911.3,856.62V866h-8.49v-9.34Z"/><path class="cls-1" d="M951.84,809.86a16.34,16.34,0,0,1,6.31,6.31,16.87,16.87,0,0,1,2.1,8.16,18.25,18.25,0,0,1-2.44,9.92,32.25,32.25,0,0,1-7.82,8l-16.06,12.28a22.05,22.05,0,0,0-3,2.4c-.7.7-1.05,1.22-1.05,1.55h30.62V866H920.89v-2a17.29,17.29,0,0,1,2.06-8.2,19.9,19.9,0,0,1,5.76-6.69l16.74-12.61a19.92,19.92,0,0,0,5-5.63,12.72,12.72,0,0,0,1.51-6.14,9.51,9.51,0,0,0-5-8.37,11.65,11.65,0,0,0-5.88-1.39,12.73,12.73,0,0,0-6.27,1.51,11.15,11.15,0,0,0-4.24,4,10.57,10.57,0,0,0-1.52,5.55v1.18a4.17,4.17,0,0,0,.09,1H921l-.08-.84v-.68a20.66,20.66,0,0,1,2.19-9.29,17.33,17.33,0,0,1,6.81-7.19,22.41,22.41,0,0,1,11.69-2.77A20.18,20.18,0,0,1,951.84,809.86Z"/><path class="cls-1" d="M167.45,28.45a77,77,0,0,1,32.34,31.1q11.29,20.15,11.3,46.65H176.46q0-27.21-15-42.23T118.15,49q-31.8,0-48.41,19.62T53.13,126.35v31.8q0,38.17,16.43,57.78t48.59,19.61q30.75,0,44.89-15.37t14.13-48.95v-4.59H108.61v-31.1H211.09v82.7q0,29.34,2.13,45.23h-20.5a214.69,214.69,0,0,1-7.06-29q-23,32.5-67.51,32.51-47,0-73.33-28.81t-26.32-80v-31.8q0-50.89,26.32-79.87t73.33-29Q146.43,17.5,167.45,28.45Z"/><path class="cls-1" d="M286,21V232H397.36l4.94,31.45H251.41V21Z"/><path class="cls-1" d="M566.16,21l94.7,242.43H623.41l-20.5-52.65H487l-20.14,52.65H433.28L528,21Zm-19.8,41.7h-2.12L499.36,179.35h91.53Z"/><path class="cls-1" d="M960.51,21V263.46H925.87V61.67h-2.12L840,263.46H810.66L727.26,61.67h-1.77V263.46H694.05V21h54.42l78.1,190.83H828L906.43,21Z"/></svg>