<?xml version="1.0" encoding="UTF-8" standalone="no"?>
<svg
   xmlns:dc="http://purl.org/dc/elements/1.1/"
   xmlns:cc="http://creativecommons.org/ns#"
   xmlns:rdf="http://www.w3.org/1999/02/22-rdf-syntax-ns#"
   xmlns:svg="http://www.w3.org/2000/svg"
   xmlns="http://www.w3.org/2000/svg"
   xmlns:sodipodi="http://sodipodi.sourceforge.net/DTD/sodipodi-0.dtd"
   xmlns:inkscape="http://www.inkscape.org/namespaces/inkscape"
   width="116.461"
   height="104.382"
   viewBox="0 0 116.461 104.382"
   version="1.1"
   id="svg40"
   sodipodi:docname="glam-logo-no-v.svg"
   inkscape:export-filename="/home/loredana/Scaricati/loghi-20210802T140835Z-001/loghi/glam-logo-no-v.png"
   inkscape:export-xdpi="96"
   inkscape:export-ydpi="96"
   inkscape:version="0.92.5 (2060ec1f9f, 2020-04-08)">
  <metadata
     id="metadata46">
    <rdf:RDF>
      <cc:Work
         rdf:about="">
        <dc:format>image/svg+xml</dc:format>
        <dc:type
           rdf:resource="http://purl.org/dc/dcmitype/StillImage" />
      </cc:Work>
    </rdf:RDF>
  </metadata>
  <defs
     id="defs44" />
  <sodipodi:namedview
     pagecolor="#ffffff"
     bordercolor="#666666"
     borderopacity="1"
     objecttolerance="10"
     gridtolerance="10"
     guidetolerance="10"
     inkscape:pageopacity="0"
     inkscape:pageshadow="2"
     inkscape:window-width="1848"
     inkscape:window-height="1016"
     id="namedview42"
     showgrid="false"
     inkscape:zoom="2.2609261"
     inkscape:cx="120.38884"
     inkscape:cy="48.652628"
     inkscape:window-x="72"
     inkscape:window-y="27"
     inkscape:window-maximized="1"
     inkscape:current-layer="svg40" />
  <g
     id="Raggruppa_2985"
     data-name="Raggruppa 2985"
     transform="matrix(0.88597664,0,0,1.1889292,-419.78535,-498.99171)"
     style="stroke-width:0.97434074"
     inkscape:export-xdpi="97.460159"
     inkscape:export-ydpi="97.460159">
    <g
       id="Raggruppa_2947"
       data-name="Raggruppa 2947"
       style="stroke-width:0.97434074">
      <g
         id="Raggruppa_2946"
         data-name="Raggruppa 2946"
         style="stroke-width:0.97434074">
        <path
           id="Tracciato_1659"
           data-name="Tracciato 1659"
           d="m 483.353,477.394 a 2.977,2.977 0 0 0 1.5,2.663 7.639,7.639 0 0 0 4.094,0.943 6.073,6.073 0 0 0 3.607,-0.926 2.88,2.88 0 0 0 1.28,-2.444 2.4,2.4 0 0 0 -0.725,-1.853 4.814,4.814 0 0 0 -1.786,-1.028 22.679,22.679 0 0 0 -2.847,-0.692 26.689,26.689 0 0 1 -3.3,-0.825 5.21,5.21 0 0 1 -2.124,-1.331 3.494,3.494 0 0 1 -0.876,-2.528 4.125,4.125 0 0 1 1.685,-3.4 9.8,9.8 0 0 1 8.56,-0.607 4.958,4.958 0 0 1 2.073,1.77 4.085,4.085 0 0 1 0.658,2.174 l -0.034,0.472 h -1.686 v -0.439 a 3.091,3.091 0 0 0 -0.96,-2.106 q -0.96,-1.027 -3.926,-1.028 -2.865,0 -3.759,0.978 a 3.091,3.091 0 0 0 -0.892,2.123 2.029,2.029 0 0 0 0.674,1.584 4.528,4.528 0 0 0 1.685,0.927 q 1.011,0.32 2.8,0.691 a 32.482,32.482 0 0 1 3.37,0.875 5.415,5.415 0 0 1 2.225,1.383 3.484,3.484 0 0 1 0.909,2.527 4.443,4.443 0 0 1 -1.9,4.011 9.284,9.284 0 0 1 -5.14,1.247 8.88,8.88 0 0 1 -3.994,-0.775 5.121,5.121 0 0 1 -2.19,-1.888 4.18,4.18 0 0 1 -0.658,-2.123 c 0,-0.27 0.005,-0.472 0.017,-0.607 0.012,-0.135 0.017,-0.213 0.017,-0.236 h 1.685 a 2.608,2.608 0 0 0 -0.042,0.468 z"
           inkscape:connector-curvature="0"
           style="fill:#080d5a;stroke-width:0.97434074" />
        <path
           id="Tracciato_1660"
           data-name="Tracciato 1660"
           d="m 505.31,482.4 a 5.2,5.2 0 0 1 -1.231,0.152 3.371,3.371 0 0 1 -2.494,-0.944 3.794,3.794 0 0 1 -0.943,-2.8 v -12.266 h -1.888 v -1.55 h 1.888 l 0.607,-5.493 h 1.112 v 5.493 h 4.011 v 1.55 h -4.011 v 12.2 a 2.359,2.359 0 0 0 0.522,1.8 2.049,2.049 0 0 0 1.4,0.455 4.206,4.206 0 0 0 1.012,-0.168 6.648,6.648 0 0 0 1.079,-0.371 v 1.517 a 3.685,3.685 0 0 1 -1.064,0.425 z"
           inkscape:connector-curvature="0"
           style="fill:#080d5a;stroke-width:0.97434074" />
        <path
           id="Tracciato_1661"
           data-name="Tracciato 1661"
           d="m 524.1,481 a 3.347,3.347 0 0 0 1.686,-0.539 v 1.449 a 3.753,3.753 0 0 1 -2.158,0.641 1.736,1.736 0 0 1 -1.684,-0.894 5.252,5.252 0 0 1 -0.473,-2.443 6.611,6.611 0 0 1 -2.611,2.528 7.948,7.948 0 0 1 -3.69,0.809 6.512,6.512 0 0 1 -3.91,-1.1 4.281,4.281 0 0 1 -1.517,-3.724 4.41,4.41 0 0 1 1.432,-3.589 7.636,7.636 0 0 1 3.876,-1.55 46.608,46.608 0 0 1 6.42,-0.354 v -2.157 a 3.76,3.76 0 0 0 -1.027,-3.017 5.43,5.43 0 0 0 -3.455,-0.859 6.574,6.574 0 0 0 -3.572,0.859 2.916,2.916 0 0 0 -1.348,2.646 v 0.539 h -1.652 a 7.362,7.362 0 0 1 -0.068,-0.876 3.96,3.96 0 0 1 1.872,-3.454 8.337,8.337 0 0 1 4.768,-1.264 7.312,7.312 0 0 1 4.668,1.247 4.661,4.661 0 0 1 1.534,3.842 v 10.144 Q 523.189,481 524.1,481 Z m -8.24,-6.976 a 6.715,6.715 0 0 0 -3.218,1.1 3.055,3.055 0 0 0 -1.18,2.646 2.972,2.972 0 0 0 0.961,2.46 4.908,4.908 0 0 0 3.077,0.77 6.415,6.415 0 0 0 2.882,-0.674 5.458,5.458 0 0 0 2.224,-2.039 6.171,6.171 0 0 0 0.859,-3.353 v -1.146 a 51.681,51.681 0 0 0 -5.607,0.236 z"
           inkscape:connector-curvature="0"
           style="fill:#080d5a;stroke-width:0.97434074" />
        <path
           id="Tracciato_1662"
           data-name="Tracciato 1662"
           d="m 535,482.4 a 5.2,5.2 0 0 1 -1.231,0.152 3.371,3.371 0 0 1 -2.494,-0.944 3.794,3.794 0 0 1 -0.943,-2.8 v -12.266 h -1.888 v -1.55 h 1.888 l 0.606,-5.493 h 1.113 v 5.493 h 4.01 v 1.55 h -4.01 v 12.2 a 2.359,2.359 0 0 0 0.522,1.8 2.049,2.049 0 0 0 1.4,0.455 4.206,4.206 0 0 0 1.012,-0.168 6.6,6.6 0 0 0 1.078,-0.371 v 1.517 A 3.666,3.666 0 0 1 535,482.4 Z"
           inkscape:connector-curvature="0"
           style="fill:#080d5a;stroke-width:0.97434074" />
        <path
           id="Tracciato_1663"
           data-name="Tracciato 1663"
           d="m 553.2,482.4 a 5.2,5.2 0 0 1 -1.231,0.152 3.371,3.371 0 0 1 -2.494,-0.944 3.794,3.794 0 0 1 -0.944,-2.8 v -12.266 h -1.887 v -1.55 h 1.887 l 0.607,-5.493 h 1.113 v 5.493 h 4.01 v 1.55 h -4.01 v 12.2 a 2.359,2.359 0 0 0 0.522,1.8 2.046,2.046 0 0 0 1.4,0.455 4.192,4.192 0 0 0 1.011,-0.168 6.58,6.58 0 0 0 1.079,-0.371 v 1.517 A 3.667,3.667 0 0 1 553.2,482.4 Z"
           inkscape:connector-curvature="0"
           style="fill:#080d5a;stroke-width:0.97434074" />
        <path
           id="Tracciato_1664"
           data-name="Tracciato 1664"
           d="m 561.271,481.523 a 6.865,6.865 0 0 1 -2.578,-2.983 10.837,10.837 0 0 1 -0.927,-4.684 v -0.506 a 10.842,10.842 0 0 1 0.927,-4.685 6.862,6.862 0 0 1 2.578,-2.982 7.443,7.443 0 0 1 7.549,0 6.881,6.881 0 0 1 2.578,2.982 10.871,10.871 0 0 1 0.927,4.685 v 0.506 a 10.867,10.867 0 0 1 -0.927,4.684 6.884,6.884 0 0 1 -2.578,2.983 7.444,7.444 0 0 1 -7.549,0 z m 7.785,-2.309 a 7.644,7.644 0 0 0 1.55,-5.157 v -0.909 a 7.648,7.648 0 0 0 -1.55,-5.157 5.4,5.4 0 0 0 -8.021,0 7.642,7.642 0 0 0 -1.551,5.157 v 0.909 a 7.639,7.639 0 0 0 1.551,5.157 5.4,5.4 0 0 0 8.021,0 z"
           inkscape:connector-curvature="0"
           style="fill:#080d5a;stroke-width:0.97434074" />
        <path
           id="Tracciato_1665"
           data-name="Tracciato 1665"
           d="m 579.772,481.523 a 6.872,6.872 0 0 1 -2.578,-2.983 10.838,10.838 0 0 1 -0.927,-4.684 v -0.506 a 10.842,10.842 0 0 1 0.927,-4.685 6.869,6.869 0 0 1 2.578,-2.982 7.443,7.443 0 0 1 7.549,0 6.884,6.884 0 0 1 2.579,2.982 10.871,10.871 0 0 1 0.927,4.685 v 0.506 a 10.867,10.867 0 0 1 -0.927,4.684 6.887,6.887 0 0 1 -2.579,2.983 7.444,7.444 0 0 1 -7.549,0 z m 7.786,-2.309 a 7.644,7.644 0 0 0 1.55,-5.157 v -0.909 a 7.647,7.647 0 0 0 -1.55,-5.157 5.4,5.4 0 0 0 -8.021,0 7.642,7.642 0 0 0 -1.551,5.157 v 0.909 a 7.639,7.639 0 0 0 1.551,5.157 5.4,5.4 0 0 0 8.021,0 z"
           inkscape:connector-curvature="0"
           style="fill:#080d5a;stroke-width:0.97434074" />
        <path
           id="Tracciato_1666"
           data-name="Tracciato 1666"
           d="m 595.949,482.214 v -24.266 h 1.719 v 24.266 z"
           inkscape:connector-curvature="0"
           style="fill:#080d5a;stroke-width:0.97434074" />
      </g>
    </g>
    <g
       id="Raggruppa_2949"
       data-name="Raggruppa 2949"
       style="stroke-width:0.97434074">
      <g
         id="Raggruppa_2948"
         data-name="Raggruppa 2948"
         style="stroke-width:0.97434074">
        <path
           id="Tracciato_1667"
           data-name="Tracciato 1667"
           d="m 490.881,505.818 a 5.648,5.648 0 0 1 -3.773,1.236 6.1,6.1 0 0 1 -2.815,-0.6 4.113,4.113 0 0 1 -1.835,-2.144 11.013,11.013 0 0 1 -0.67,-4.268 v -0.536 a 11.006,11.006 0 0 1 0.67,-4.268 4.116,4.116 0 0 1 1.835,-2.145 6.109,6.109 0 0 1 2.815,-0.6 5.7,5.7 0 0 1 3.783,1.216 q 1.455,1.218 1.454,4.187 h -1.092 a 4.36,4.36 0 0 0 -1.135,-3.434 4.443,4.443 0 0 0 -3.01,-0.979 3.92,3.92 0 0 0 -3.114,1.248 q -1.092,1.247 -1.093,4.525 v 1.031 q 0,3.279 1.093,4.526 a 3.919,3.919 0 0 0 3.114,1.248 q 4.145,0 4.145,-4.392 h 1.092 q 0,2.911 -1.464,4.149 z"
           inkscape:connector-curvature="0"
           style="fill:#080d5a;stroke-width:0.97434074" />
        <path
           id="Tracciato_1668"
           data-name="Tracciato 1668"
           d="m 503.809,503.343 h -7.464 l -1.444,3.505 h -1.155 L 499.6,492.7 h 1.031 l 5.855,14.145 h -1.216 z m -7.051,-1.01 h 6.642 l -3.279,-8.1 h -0.082 z"
           inkscape:connector-curvature="0"
           style="fill:#080d5a;stroke-width:0.97434074" />
        <path
           id="Tracciato_1669"
           data-name="Tracciato 1669"
           d="m 516.346,496.023 a 2.1,2.1 0 0 0 -1.02,-1.887 4.789,4.789 0 0 0 -2.61,-0.649 4.959,4.959 0 0 0 -2.618,0.608 2.1,2.1 0 0 0 -0.99,1.928 1.9,1.9 0 0 0 0.516,1.392 3.607,3.607 0 0 0 1.278,0.825 18.2,18.2 0 0 0 2.062,0.628 22.473,22.473 0 0 1 2.526,0.795 4.063,4.063 0 0 1 1.629,1.175 3.2,3.2 0 0 1 0.67,2.133 3.529,3.529 0 0 1 -1.392,3.1 6.152,6.152 0 0 1 -3.618,0.979 6.463,6.463 0 0 1 -3.712,-0.958 3.489,3.489 0 0 1 -1.4,-3.1 l 0.021,-0.372 h 1.051 l -0.021,0.557 a 2.407,2.407 0 0 0 1.093,2.2 5.341,5.341 0 0 0 2.887,0.691 q 4,0 4,-3.031 a 2.231,2.231 0 0 0 -0.547,-1.568 3.51,3.51 0 0 0 -1.34,-0.907 21.9,21.9 0 0 0 -2.175,-0.68 21.362,21.362 0 0 1 -2.433,-0.784 3.979,3.979 0 0 1 -1.547,-1.124 3,3 0 0 1 -0.638,-2.01 2.892,2.892 0 0 1 1.33,-2.6 6.023,6.023 0 0 1 3.35,-0.866 5.777,5.777 0 0 1 3.382,0.908 3.183,3.183 0 0 1 1.3,2.8 v 0.268 h -1.031 z"
           inkscape:connector-curvature="0"
           style="fill:#080d5a;stroke-width:0.97434074" />
        <path
           id="Tracciato_1670"
           data-name="Tracciato 1670"
           d="m 528.759,496.023 a 2.1,2.1 0 0 0 -1.02,-1.887 4.789,4.789 0 0 0 -2.61,-0.649 4.959,4.959 0 0 0 -2.618,0.608 2.1,2.1 0 0 0 -0.99,1.928 1.9,1.9 0 0 0 0.516,1.392 3.608,3.608 0 0 0 1.278,0.825 18.2,18.2 0 0 0 2.062,0.628 22.477,22.477 0 0 1 2.526,0.795 4.063,4.063 0 0 1 1.629,1.175 3.2,3.2 0 0 1 0.67,2.133 3.529,3.529 0 0 1 -1.392,3.1 6.152,6.152 0 0 1 -3.618,0.979 6.463,6.463 0 0 1 -3.712,-0.958 3.489,3.489 0 0 1 -1.4,-3.1 l 0.021,-0.372 h 1.051 l -0.021,0.557 a 2.407,2.407 0 0 0 1.093,2.2 5.341,5.341 0 0 0 2.887,0.691 q 4,0 4,-3.031 a 2.231,2.231 0 0 0 -0.547,-1.568 3.509,3.509 0 0 0 -1.34,-0.907 21.9,21.9 0 0 0 -2.175,-0.68 21.36,21.36 0 0 1 -2.433,-0.784 3.978,3.978 0 0 1 -1.547,-1.124 3,3 0 0 1 -0.638,-2.01 2.892,2.892 0 0 1 1.33,-2.6 6.023,6.023 0 0 1 3.35,-0.866 5.778,5.778 0 0 1 3.382,0.908 3.183,3.183 0 0 1 1.3,2.8 v 0.268 h -1.031 z"
           inkscape:connector-curvature="0"
           style="fill:#080d5a;stroke-width:0.97434074" />
        <path
           id="Tracciato_1671"
           data-name="Tracciato 1671"
           d="M 541.564,503.343 H 534.1 l -1.443,3.505 H 531.5 l 5.856,-14.145 h 1.031 l 5.856,14.145 h -1.217 z m -7.052,-1.01 h 6.64 l -3.28,-8.1 h -0.082 z"
           inkscape:connector-curvature="0"
           style="fill:#080d5a;stroke-width:0.97434074" />
        <path
           id="Tracciato_1672"
           data-name="Tracciato 1672"
           d="m 555.131,506.848 -7.836,-12.021 h -0.061 v 12.021 h -0.99 V 492.7 h 0.948 l 7.877,12.021 h 0.062 V 492.7 h 0.989 v 14.145 z"
           inkscape:connector-curvature="0"
           style="fill:#080d5a;stroke-width:0.97434074" />
        <path
           id="Tracciato_1673"
           data-name="Tracciato 1673"
           d="m 560.037,492.7 h 4.537 a 5.293,5.293 0 0 1 4.01,1.537 q 1.475,1.536 1.475,5.268 v 0.515 q 0,3.712 -1.485,5.268 a 5.263,5.263 0 0 1 -4,1.557 h -4.537 z m 7.733,11.9 q 1.176,-1.259 1.175,-4.392 v -0.887 q 0,-5.628 -4.371,-5.629 h -3.423 v 12.166 h 3.423 a 4.164,4.164 0 0 0 3.196,-1.258 z"
           inkscape:connector-curvature="0"
           style="fill:#080d5a;stroke-width:0.97434074" />
        <path
           id="Tracciato_1674"
           data-name="Tracciato 1674"
           d="m 583.709,506.879 a 1.562,1.562 0 0 1 -0.33,0.031 1.444,1.444 0 0 1 -1.124,-0.567 3.366,3.366 0 0 1 -0.485,-2.114 q 0,-2.474 -0.865,-3.288 a 2.611,2.611 0 0 0 -1.8,-0.815 h -4.556 v 6.722 H 573.44 V 492.7 h 5.753 a 4.252,4.252 0 0 1 1.907,0.443 3.816,3.816 0 0 1 1.455,1.238 3.1,3.1 0 0 1 0.556,1.824 3.493,3.493 0 0 1 -0.33,1.465 3.631,3.631 0 0 1 -0.918,1.237 2.628,2.628 0 0 1 -1.288,0.639 v 0.1 c 0,-0.068 0.209,0.014 0.628,0.248 a 3.124,3.124 0 0 1 1.135,1.247 5.261,5.261 0 0 1 0.505,2.546 7.4,7.4 0 0 0 0.144,1.722 1.5,1.5 0 0 0 0.3,0.681 2.866,2.866 0 0 0 0.609,0.34 v 0.392 a 1.057,1.057 0 0 1 -0.187,0.057 z m -3.072,-8.114 a 2.752,2.752 0 0 0 1.01,-1 2.642,2.642 0 0 0 0.371,-1.371 2.592,2.592 0 0 0 -0.371,-1.361 2.754,2.754 0 0 0 -2.392,-1.34 h -4.7 v 5.443 h 4.7 a 2.7,2.7 0 0 0 1.382,-0.371 z"
           inkscape:connector-curvature="0"
           style="fill:#080d5a;stroke-width:0.97434074" />
        <path
           id="Tracciato_1675"
           data-name="Tracciato 1675"
           d="m 594.988,503.343 h -7.465 l -1.443,3.505 h -1.155 l 5.856,-14.145 h 1.032 l 5.855,14.145 h -1.216 z m -7.052,-1.01 h 6.64 l -3.279,-8.1 h -0.082 z"
           inkscape:connector-curvature="0"
           style="fill:#080d5a;stroke-width:0.97434074" />
      </g>
    </g>
    <g
       id="Raggruppa_2950"
       data-name="Raggruppa 2950"
       style="stroke-width:0.97434074">
      <path
         id="Tracciato_1676"
         data-name="Tracciato 1676"
         d="m 499.7,421.8 a 9.514,9.514 0 0 1 3.995,3.842 11.576,11.576 0 0 1 1.4,5.762 h -4.278 a 7.057,7.057 0 0 0 -1.856,-5.217 7.242,7.242 0 0 0 -5.347,-1.855 7.4,7.4 0 0 0 -5.981,2.423 q -2.052,2.424 -2.052,7.138 v 3.929 q 0,4.715 2.03,7.138 a 7.387,7.387 0 0 0 6,2.423 q 3.8,0 5.544,-1.9 1.744,-1.9 1.747,-6.047 v -0.567 h -8.47 v -3.842 h 12.66 v 10.213 a 45.017,45.017 0 0 0 0.263,5.587 h -2.535 a 26.751,26.751 0 0 1 -0.873,-3.579 9.557,9.557 0 0 1 -8.338,4.016 q -5.808,0 -9.059,-3.558 -3.251,-3.558 -3.252,-9.888 v -3.929 q 0,-6.287 3.252,-9.866 3.252,-3.579 9.059,-3.58 a 13,13 0 0 1 6.091,1.357 z"
         inkscape:connector-curvature="0"
         style="fill:#080d5a;stroke-width:0.97434074" />
      <path
         id="Tracciato_1677"
         data-name="Tracciato 1677"
         d="m 514.349,420.879 v 26.063 H 528.1 l 0.61,3.885 h -18.64 v -29.948 z"
         inkscape:connector-curvature="0"
         style="fill:#080d5a;stroke-width:0.97434074" />
      <path
         id="Tracciato_1678"
         data-name="Tracciato 1678"
         d="m 548.952,420.879 11.7,29.948 h -4.627 l -2.533,-6.5 h -14.319 l -2.488,6.5 h -4.148 l 11.7,-29.948 z m -2.445,5.152 h -0.262 l -5.545,14.406 h 11.308 z"
         inkscape:connector-curvature="0"
         style="fill:#080d5a;stroke-width:0.97434074" />
      <path
         id="Tracciato_1679"
         data-name="Tracciato 1679"
         d="m 597.668,420.879 v 29.948 H 593.39 V 425.9 h -0.263 l -10.346,24.927 h -3.624 l -10.3,-24.927 h -0.219 v 24.927 h -3.885 v -29.948 h 6.723 l 9.648,23.574 h 0.175 l 9.691,-23.574 z"
         inkscape:connector-curvature="0"
         style="fill:#080d5a;stroke-width:0.97434074" />
    </g>
  </g>
</svg>
