<?xml version="1.0" encoding="UTF-8"?>
<svg
  xmlns="http://www.w3.org/2000/svg"
  xmlns:xlink="http://www.w3.org/1999/xlink" width="375pt" height="374.999991pt" viewBox="0 0 375 374.999991" version="1.2">
  <defs>
    <clipPath id="clip1">
      <path d="M 78.679688 78.679688 L 296.039062 78.679688 L 296.039062 296.039062 L 78.679688 296.039062 Z M 78.679688 78.679688 "/>
    </clipPath>
  </defs>
  <g id="surface1">
    <g clip-path="url(#clip1)" clip-rule="nonzero">
      <path style=" stroke:none;fill-rule:nonzero;fill:rgb(6.669617%,2.349854%,21.958923%);fill-opacity:1;" d="M 187.359375 296.039062 C 127.429688 296.039062 78.679688 247.285156 78.679688 187.359375 C 78.679688 127.429688 127.429688 78.679688 187.359375 78.679688 C 247.285156 78.679688 296.039062 127.429688 296.039062 187.359375 C 296.039062 247.285156 247.285156 296.039062 187.359375 296.039062 Z M 187.359375 87.734375 C 132.429688 87.734375 87.734375 132.429688 87.734375 187.359375 C 87.734375 242.285156 132.429688 286.980469 187.359375 286.980469 C 242.285156 286.980469 286.980469 242.285156 286.980469 187.359375 C 286.980469 132.429688 242.285156 87.734375 187.359375 87.734375 Z M 187.359375 87.734375 "/>
    </g>
    <path style=" stroke:none;fill-rule:nonzero;fill:rgb(40.388489%,39.99939%,85.879517%);fill-opacity:1;" d="M 164.714844 178.300781 L 137.546875 178.300781 C 130.054688 178.300781 123.960938 172.207031 123.960938 164.714844 L 123.960938 137.546875 C 123.960938 130.054688 130.054688 123.960938 137.546875 123.960938 L 164.714844 123.960938 C 172.207031 123.960938 178.300781 130.054688 178.300781 137.546875 L 178.300781 164.714844 C 178.300781 172.207031 172.207031 178.300781 164.714844 178.300781 Z M 164.714844 178.300781 "/>
    <path style=" stroke:none;fill-rule:nonzero;fill:rgb(40.388489%,39.99939%,85.879517%);fill-opacity:1;" d="M 237.167969 178.300781 L 210 178.300781 C 202.507812 178.300781 196.414062 172.207031 196.414062 164.714844 L 196.414062 137.546875 C 196.414062 130.054688 202.507812 123.960938 210 123.960938 L 237.167969 123.960938 C 244.660156 123.960938 250.753906 130.054688 250.753906 137.546875 L 250.753906 164.714844 C 250.753906 172.207031 244.660156 178.300781 237.167969 178.300781 Z M 237.167969 178.300781 "/>
    <path style=" stroke:none;fill-rule:nonzero;fill:rgb(40.388489%,39.99939%,85.879517%);fill-opacity:1;" d="M 164.714844 250.753906 L 137.546875 250.753906 C 130.054688 250.753906 123.960938 244.660156 123.960938 237.167969 L 123.960938 210 C 123.960938 202.507812 130.054688 196.414062 137.546875 196.414062 L 164.714844 196.414062 C 172.207031 196.414062 178.300781 202.507812 178.300781 210 L 178.300781 237.167969 C 178.300781 244.660156 172.207031 250.753906 164.714844 250.753906 Z M 164.714844 250.753906 "/>
    <path style=" stroke:none;fill-rule:nonzero;fill:rgb(40.388489%,39.99939%,85.879517%);fill-opacity:1;" d="M 237.167969 250.753906 L 210 250.753906 C 202.507812 250.753906 196.414062 244.660156 196.414062 237.167969 L 196.414062 210 C 196.414062 202.507812 202.507812 196.414062 210 196.414062 L 237.167969 196.414062 C 244.660156 196.414062 250.753906 202.507812 250.753906 210 L 250.753906 237.167969 C 250.753906 244.660156 244.660156 250.753906 237.167969 250.753906 Z M 237.167969 250.753906 "/>
  </g>
</svg>
