<?xml version="1.0" encoding="UTF-8" standalone="no"?>
<svg
   xmlns:i="http://ns.adobe.com/AdobeIllustrator/10.0/"
   xmlns:dc="http://purl.org/dc/elements/1.1/"
   xmlns:cc="http://creativecommons.org/ns#"
   xmlns:rdf="http://www.w3.org/1999/02/22-rdf-syntax-ns#"
   xmlns:svg="http://www.w3.org/2000/svg"
   xmlns="http://www.w3.org/2000/svg"
   width="490.54504"
   height="539.34937"
   viewBox="0 0 459.88599 505.64001"
   overflow="visible"
   enable-background="new 0 0 459.886 421.887"
   xml:space="preserve"
   id="svg2"
   version="1.0">
   <g
     transform="matrix(0.90984659,0,0,1.0990864,0,43.125)"
     style="font-style:normal;font-variant:normal;font-weight:bold;font-stretch:normal;font-size:41.9637px;line-height:125%;font-family:'Gill Sans MT';-inkscape-font-specification:'Gill Sans MT';text-align:start;writing-mode:lr-tb;text-anchor:start;fill:#666666;fill-opacity:1;stroke:none"
     id="text2273"><g
       transform="scale(1.0990864,0.90984658)"
       style="font-weight:normal;font-size:20px;font-family:'DejaVu Sans';-inkscape-font-specification:'DejaVu Sans';text-align:center;text-anchor:middle;fill:#666666"
       id="text2830"><path
         d="m 225.96448,438.67075 c -1.44925,0.75195 -2.95999,1.31933 -4.53223,1.70214 -1.57229,0.38282 -3.21291,0.57422 -4.92187,0.57422 -5.09963,0 -9.13966,-1.42187 -12.12012,-4.26562 -2.98047,-2.85742 -4.47071,-6.72655 -4.4707,-11.60742 -1e-5,-4.89451 1.49023,-8.76365 4.4707,-11.60743 2.98046,-2.85739 7.02049,-4.2861 12.12012,-4.28613 1.70896,3e-5 3.34958,0.19144 4.92187,0.57422 1.57224,0.38284 3.08298,0.95023 4.53223,1.70215 v 6.33691 c -1.46292,-0.99802 -2.9053,-1.72947 -4.32715,-2.19433 -1.4219,-0.46482 -2.91897,-0.69724 -4.49121,-0.69727 -2.81642,3e-5 -5.03127,0.90237 -6.64453,2.70703 -1.6133,1.80471 -2.41994,4.29299 -2.41992,7.46485 -2e-5,3.15821 0.80662,5.63965 2.41992,7.44433 1.61326,1.8047 3.82811,2.70704 6.64453,2.70703 1.57224,10e-6 3.06931,-0.23241 4.49121,-0.69726 1.42185,-0.46484 2.86423,-1.19628 4.32715,-2.19434 v 6.33692"
         style="font-weight:bold;font-size:42px;line-height:100%;font-family:Sans;-inkscape-font-specification:'Sans Bold';writing-mode:lr-tb;fill:#666666"
         id="path2835" /><path
         d="m 232.52698,409.73422 h 7.89551 v 11.66895 h 11.64843 v -11.66895 h 7.89551 v 30.61817 h -7.89551 v -12.98145 h -11.64843 v 12.98145 h -7.89551 v -30.61817"
         style="font-weight:bold;font-size:42px;line-height:100%;font-family:Sans;-inkscape-font-specification:'Sans Bold';writing-mode:lr-tb;fill:#666666"
         id="path2837" /></g></g><g
     id="g3251"
     transform="translate(0,43.125)"><path
       
       d="m 172.815,31.241 c 0,-31.615 25.629,-57.241 57.248,-57.241 31.619,0 57.247,25.626 57.247,57.241 0,31.612 -25.629,57.236 -57.247,57.236 -31.618,0 -57.248,-25.624 -57.248,-57.236 z"
       id="path7"
       style="fill:#990000" /><path
       
       d="m 299.341,65.7 c 21.396,19.074 34.867,46.838 34.867,77.754 0,53.36 -40.143,97.343 -91.876,103.415 V 122.704 Z"
       id="path9"
       style="fill:#339966" /><path
       
       d="m 125.919,143.454 c 0,-30.917 13.472,-58.68 34.866,-77.754 l 57.009,57.004 v 124.165 c -51.736,-6.072 -91.875,-50.055 -91.875,-103.415 z"
       id="path11"
       style="fill:#339966" /><path
       
       d="m 56.889,146.004 c 0,-50.623 21.727,-96.17 56.364,-127.832 l 31.644,31.641 c -25.724,23.247 -41.889,56.873 -41.889,94.271 0,70.162 56.885,127.041 127.055,127.041 70.173,0 127.054,-56.879 127.054,-127.041 0,-37.398 -16.162,-71.024 -41.885,-94.271 l 31.646,-31.641 c 34.639,31.661 56.36,77.21 56.36,127.832 0,95.628 -77.527,173.153 -173.175,173.153 -95.643,0 -173.174,-77.524 -173.174,-173.153 z"
       id="path13"
       style="fill:#006699" /><path
       style="fill:#484848"
       id="path17"
       d="M 22.898,395.887 0,342.664 h 7.174 7.21 l 11.858,29.462 h -0.025 l 13.61,-29.462 H 44.895 50 l 13.575,29.499 h 0.02 l 11.812,-29.499 h 7.171 7.21 l -22.86,53.223 H 64.113 61.259 L 44.9,362.748 h -0.005 l -16.33,33.139 H 25.75 Z"
        /><path
       style="fill:#484848"
       id="path19"
       d="m 96.067,342.664 h 6.536 6.573 v 52.435 h -6.536 -6.573 z"
        /><path
       style="fill:#484848"
       id="path21"
       d="m 134.267,395.099 h -6.536 -6.572 v -52.435 h 6.535 6.573 v 24.81 h 0.021 l 16.734,-24.81 h 7.403 7.403 l -18.282,25.146 23.799,27.288 h -8.298 -8.336 L 134.251,370.1 h 0.015 v 24.999 z"
        /><path
       style="fill:#484848"
       id="path23"
       d="m 176.911,342.664 h 6.536 6.572 v 52.435 h -6.535 -6.573 z"
        /><path
       style="fill:#484848"
       id="path25"
       d="m 215.111,395.099 h -6.536 -6.573 v -52.435 h 5.898 5.895 l 16.408,18.914 h 0.006 l 16.373,-18.914 h 5.898 5.898 v 52.435 h -6.536 -6.572 v -32.204 h 0.033 l -13.971,16.139 h -1.124 -1.128 L 215.1,362.895 h 0.012 v 32.204 z"
        /><path
       style="fill:#484848"
       id="path27"
       d="m 270.176,395.099 v -52.435 h 38.636 v 4.713 4.749 h -25.527 v 11.236 h 23.95 v 4.711 4.751 h -23.95 v 12.813 h 25.527 v 4.712 4.75 z"
        /><path
       style="fill:#484848"
       id="path29"
       d="m 318.748,342.664 h 6.535 13.373 c 10.768,0 18.844,2.19 24.231,6.568 5.331,4.33 7.998,10.848 7.998,19.555 v 0.113 c 0.025,8.732 -2.54,15.282 -7.699,19.648 -5.159,4.366 -12.909,6.55 -23.252,6.55 h -14.651 -6.535 z m 13.108,42.774 h 8.095 c 5.744,0 10.053,-1.374 12.927,-4.125 2.873,-2.75 4.308,-6.889 4.308,-12.413 0,-5.525 -1.543,-9.671 -4.629,-12.433 -3.086,-2.764 -7.716,-4.145 -13.888,-4.145 h -6.813 z"
        /><path
       style="fill:#484848"
       id="path31"
       d="m 380.84,342.664 h 6.536 6.572 v 52.435 h -6.535 -6.573 z"
        /><path
       style="fill:#484848"
       id="path33"
       d="m 422.46,341.876 h 7.621 7.656 l 22.148,53.223 h -7.136 -7.138 l -3.896,-9.955 H 418.44 l -3.856,9.955 h -7.134 -7.136 z m -0.406,33.806 h 16.053 l -8.063,-20.546 h -0.01 z"
        /><g
       id="g3243" /></g>
	   </svg>
