<?xml version="1.0" encoding="UTF-8" standalone="no"?>
<svg
   xmlns:dc="http://purl.org/dc/elements/1.1/"
   xmlns:cc="http://creativecommons.org/ns#"
   xmlns:rdf="http://www.w3.org/1999/02/22-rdf-syntax-ns#"
   xmlns:svg="http://www.w3.org/2000/svg"
   xmlns="http://www.w3.org/2000/svg"
   xmlns:sodipodi="http://sodipodi.sourceforge.net/DTD/sodipodi-0.dtd"
   xmlns:inkscape="http://www.inkscape.org/namespaces/inkscape"
   aria-hidden="true"
   focusable="false"
   data-prefix="fas"
   data-icon="pencil-alt"
   class="svg-inline--fa fa-pencil-alt fa-w-16"
   role="img"
   viewBox="0 0 512 512"
   version="1.1"
   id="svg4"
   sodipodi:docname="pencil-alt-solid.svg"
   inkscape:version="0.92.4 (f8dce91, 2019-08-02)">
  <metadata
     id="metadata10">
    <rdf:RDF>
      <cc:Work
         rdf:about="">
        <dc:format>image/svg+xml</dc:format>
        <dc:type
           rdf:resource="http://purl.org/dc/dcmitype/StillImage" />
      </cc:Work>
    </rdf:RDF>
  </metadata>
  <defs
     id="defs8" />
  <sodipodi:namedview
     pagecolor="#ffffff"
     bordercolor="#666666"
     borderopacity="1"
     objecttolerance="10"
     gridtolerance="10"
     guidetolerance="10"
     inkscape:pageopacity="0"
     inkscape:pageshadow="2"
     inkscape:window-width="1920"
     inkscape:window-height="1052"
     id="namedview6"
     showgrid="false"
     inkscape:zoom="0.65186406"
     inkscape:cx="269.59885"
     inkscape:cy="142.09865"
     inkscape:window-x="0"
     inkscape:window-y="0"
     inkscape:window-maximized="1"
     inkscape:current-layer="svg4" />
  <path
     d="m 497.9,142.1 -46.1,46.1 c -4.7,4.7 -12.3,4.7 -17,0 l -111,-111 c -4.7,-4.7 -4.7,-12.3 0,-17 l 46.1,-46.1 c 18.7,-18.7 49.1,-18.7 67.9,0 l 60.1,60.1 c 18.8,18.7 18.8,49.1 0,67.9 z M 284.2,99.8 21.6,362.4 0.4,483.9 c -2.9,16.4 11.4,30.6 27.8,27.8 L 149.7,490.4 412.3,227.8 c 4.7,-4.7 4.7,-12.3 0,-17 l -111,-111 c -4.8,-4.7 -12.4,-4.7 -17.1,0 z"
     id="path2"
     style="fill:#e8336d;fill-opacity:1"
     inkscape:connector-curvature="0"
     sodipodi:nodetypes="ssssssccssccccsscs" />
</svg>
