<?xml version="1.0" encoding="UTF-8" standalone="no"?>
<svg
   xmlns:osb="http://www.openswatchbook.org/uri/2009/osb"
   xmlns:dc="http://purl.org/dc/elements/1.1/"
   xmlns:cc="http://creativecommons.org/ns#"
   xmlns:rdf="http://www.w3.org/1999/02/22-rdf-syntax-ns#"
   xmlns:svg="http://www.w3.org/2000/svg"
   xmlns="http://www.w3.org/2000/svg"
   xmlns:xlink="http://www.w3.org/1999/xlink"
   xmlns:sodipodi="http://sodipodi.sourceforge.net/DTD/sodipodi-0.dtd"
   xmlns:inkscape="http://www.inkscape.org/namespaces/inkscape"
   viewBox="0 0 56.69 56.69"
   version="1.1"
   id="svg160"
   sodipodi:docname="suggestion.svg"
   inkscape:version="0.92.3 (2405546, 2018-03-11)">
  <metadata
     id="metadata164">
    <rdf:RDF>
      <cc:Work
         rdf:about="">
        <dc:format>image/svg+xml</dc:format>
        <dc:type
           rdf:resource="http://purl.org/dc/dcmitype/StillImage" />
        <dc:title>Tavola disegno 116</dc:title>
      </cc:Work>
    </rdf:RDF>
  </metadata>
  <sodipodi:namedview
     pagecolor="#ffffff"
     bordercolor="#666666"
     borderopacity="1"
     objecttolerance="10"
     gridtolerance="10"
     guidetolerance="10"
     inkscape:pageopacity="0"
     inkscape:pageshadow="2"
     inkscape:window-width="1853"
     inkscape:window-height="1025"
     id="namedview162"
     showgrid="false"
     inkscape:zoom="7.443994"
     inkscape:cx="44.983583"
     inkscape:cy="14.411538"
     inkscape:window-x="1987"
     inkscape:window-y="27"
     inkscape:window-maximized="1"
     inkscape:current-layer="Livello_1" />
  <defs
     id="defs115">
    <linearGradient
       id="linearGradient5229"
       osb:paint="solid">
      <stop
         style="stop-color:#000000;stop-opacity:1;"
         offset="0"
         id="stop5227" />
    </linearGradient>
    <linearGradient
       id="linearGradient5223"
       osb:paint="solid">
      <stop
         style="stop-color:#000000;stop-opacity:1;"
         offset="0"
         id="stop5221" />
    </linearGradient>
    <linearGradient
       id="linearGradient5217"
       osb:paint="solid">
      <stop
         style="stop-color:#000000;stop-opacity:1;"
         offset="0"
         id="stop5215" />
    </linearGradient>
    <linearGradient
       id="linearGradient5205"
       osb:paint="solid">
      <stop
         style="stop-color:#000000;stop-opacity:1;"
         offset="0"
         id="stop5203" />
    </linearGradient>
    <linearGradient
       id="linearGradient5199"
       osb:paint="solid">
      <stop
         style="stop-color:#000000;stop-opacity:1;"
         offset="0"
         id="stop5197" />
    </linearGradient>
    <linearGradient
       id="linearGradient5193"
       osb:paint="solid">
      <stop
         style="stop-color:#000000;stop-opacity:1;"
         offset="0"
         id="stop5191" />
    </linearGradient>
    <linearGradient
       id="linearGradient5187"
       osb:paint="solid">
      <stop
         style="stop-color:#000000;stop-opacity:1;"
         offset="0"
         id="stop5185" />
    </linearGradient>
    <linearGradient
       id="linearGradient2742"
       osb:paint="solid">
      <stop
         style="stop-color:#060a40;stop-opacity:1;"
         offset="0"
         id="stop2740" />
    </linearGradient>
    <linearGradient
       id="linearGradient2736"
       osb:paint="solid">
      <stop
         style="stop-color:#060a40;stop-opacity:1;"
         offset="0"
         id="stop2734" />
    </linearGradient>
    <linearGradient
       id="linearGradient2730"
       osb:paint="solid">
      <stop
         style="stop-color:#060a40;stop-opacity:1;"
         offset="0"
         id="stop2728" />
    </linearGradient>
    <linearGradient
       id="linearGradient2724"
       osb:paint="solid">
      <stop
         style="stop-color:#060a40;stop-opacity:1;"
         offset="0"
         id="stop2722" />
    </linearGradient>
    <linearGradient
       id="linearGradient2718"
       osb:paint="solid">
      <stop
         style="stop-color:#060a40;stop-opacity:1;"
         offset="0"
         id="stop2716" />
    </linearGradient>
    <linearGradient
       id="linearGradient2712"
       osb:paint="solid">
      <stop
         style="stop-color:#060a40;stop-opacity:1;"
         offset="0"
         id="stop2710" />
    </linearGradient>
    <linearGradient
       id="linearGradient2706"
       osb:paint="solid">
      <stop
         style="stop-color:#060a40;stop-opacity:1;"
         offset="0"
         id="stop2704" />
    </linearGradient>
    <linearGradient
       id="linearGradient2700"
       osb:paint="solid">
      <stop
         style="stop-color:#060a40;stop-opacity:1;"
         offset="0"
         id="stop2698" />
    </linearGradient>
    <linearGradient
       id="linearGradient2694"
       osb:paint="solid">
      <stop
         style="stop-color:#060a40;stop-opacity:1;"
         offset="0"
         id="stop2692" />
    </linearGradient>
    <linearGradient
       id="linearGradient2688"
       osb:paint="solid">
      <stop
         style="stop-color:#060a40;stop-opacity:1;"
         offset="0"
         id="stop2686" />
    </linearGradient>
    <linearGradient
       id="linearGradient2682"
       osb:paint="solid">
      <stop
         style="stop-color:#060a40;stop-opacity:1;"
         offset="0"
         id="stop2680" />
    </linearGradient>
    <linearGradient
       id="linearGradient2676"
       osb:paint="solid">
      <stop
         style="stop-color:#060a40;stop-opacity:1;"
         offset="0"
         id="stop2674" />
    </linearGradient>
    <linearGradient
       id="linearGradient2668"
       osb:paint="solid">
      <stop
         style="stop-color:#000000;stop-opacity:1;"
         offset="0"
         id="stop2666" />
    </linearGradient>
    <linearGradient
       id="linearGradient2662"
       osb:paint="solid">
      <stop
         style="stop-color:#000000;stop-opacity:1;"
         offset="0"
         id="stop2660" />
    </linearGradient>
    <linearGradient
       id="linearGradient2656"
       osb:paint="solid">
      <stop
         style="stop-color:#000000;stop-opacity:1;"
         offset="0"
         id="stop2654" />
    </linearGradient>
    <linearGradient
       id="linearGradient2650"
       osb:paint="solid">
      <stop
         style="stop-color:#000000;stop-opacity:1;"
         offset="0"
         id="stop2648" />
    </linearGradient>
    <linearGradient
       id="linearGradient2644"
       osb:paint="solid">
      <stop
         style="stop-color:#000000;stop-opacity:1;"
         offset="0"
         id="stop2642" />
    </linearGradient>
    <linearGradient
       id="linearGradient2638"
       osb:paint="solid">
      <stop
         style="stop-color:#000000;stop-opacity:1;"
         offset="0"
         id="stop2636" />
    </linearGradient>
    <linearGradient
       id="linearGradient2632"
       osb:paint="solid">
      <stop
         style="stop-color:#000000;stop-opacity:1;"
         offset="0"
         id="stop2630" />
    </linearGradient>
    <linearGradient
       id="linearGradient2626"
       osb:paint="solid">
      <stop
         style="stop-color:#000000;stop-opacity:1;"
         offset="0"
         id="stop2624" />
    </linearGradient>
    <linearGradient
       id="linearGradient2620"
       osb:paint="solid">
      <stop
         style="stop-color:#000000;stop-opacity:1;"
         offset="0"
         id="stop2618" />
    </linearGradient>
    <linearGradient
       id="linearGradient2614"
       osb:paint="solid">
      <stop
         style="stop-color:#000000;stop-opacity:1;"
         offset="0"
         id="stop2612" />
    </linearGradient>
    <linearGradient
       id="linearGradient2608"
       osb:paint="solid">
      <stop
         style="stop-color:#000000;stop-opacity:1;"
         offset="0"
         id="stop2606" />
    </linearGradient>
    <linearGradient
       id="linearGradient2602"
       osb:paint="solid">
      <stop
         style="stop-color:#000000;stop-opacity:1;"
         offset="0"
         id="stop2600" />
    </linearGradient>
    <linearGradient
       id="linearGradient1138"
       osb:paint="solid">
      <stop
         style="stop-color:#000000;stop-opacity:1;"
         offset="0"
         id="stop1136" />
    </linearGradient>
    <style
       id="style113">.cls-1,.cls-2{fill:none;stroke:#060a40;stroke-linecap:round;stroke-linejoin:round;stroke-width:0.75px;}.cls-2{stroke-dasharray:0 2.67;}.cls-3{fill:#fff;}.cls-4{fill:#6675ff;}</style>
    <linearGradient
       inkscape:collect="always"
       xlink:href="#linearGradient5187"
       id="linearGradient5189"
       x1="29.011708"
       y1="4.4962209"
       x2="30.768031"
       y2="4.4962209"
       gradientUnits="userSpaceOnUse" />
    <linearGradient
       inkscape:collect="always"
       xlink:href="#linearGradient5193"
       id="linearGradient5195"
       x1="40.033512"
       y1="9.8267542"
       x2="45.36805"
       y2="9.8267542"
       gradientUnits="userSpaceOnUse" />
    <linearGradient
       inkscape:collect="always"
       xlink:href="#linearGradient5199"
       id="linearGradient5201"
       x1="14.41286"
       y1="9.8267542"
       x2="19.746812"
       y2="9.8267542"
       gradientUnits="userSpaceOnUse" />
    <linearGradient
       inkscape:collect="always"
       xlink:href="#linearGradient5205"
       id="linearGradient5207"
       x1="44.598489"
       y1="22.696758"
       x2="51.414777"
       y2="22.696758"
       gradientUnits="userSpaceOnUse" />
    <linearGradient
       inkscape:collect="always"
       xlink:href="#linearGradient5217"
       id="linearGradient5219"
       x1="40.034098"
       y1="35.566467"
       x2="45.36805"
       y2="35.566467"
       gradientUnits="userSpaceOnUse" />
    <linearGradient
       inkscape:collect="always"
       xlink:href="#linearGradient5223"
       id="linearGradient5225"
       x1="14.412274"
       y1="35.566467"
       x2="19.7463"
       y2="35.566467"
       gradientUnits="userSpaceOnUse" />
    <linearGradient
       inkscape:collect="always"
       xlink:href="#linearGradient5229"
       id="linearGradient5231"
       x1="8.3649622"
       y1="22.696758"
       x2="15.181251"
       y2="22.696758"
       gradientUnits="userSpaceOnUse" />
  </defs>
  <title
     id="title117">Tavola disegno 116</title>
  <g
     id="Livello_1"
     data-name="Livello 1"
     transform="translate(-1.8135426,0.33584122)">
    <ellipse
       style="fill:none;stroke-width:0.587;stroke-miterlimit:4;stroke-dasharray:none"
       id="path272"
       cx="37.882889"
       cy="25.322428"
       rx="32.710934"
       ry="19.8818" />
    <ellipse
       style="fill:none"
       id="path276"
       cx="104.98398"
       cy="20.822155"
       rx="78.721184"
       ry="7.993021" />
    <path
       d="m 35.528837,42.305614 v -1.659753 c 0,-2.917215 1.179663,-5.71974 3.236903,-7.688861 2.573599,-2.463752 3.990951,-5.786788 3.990951,-9.356847 0,-7.127767 -5.771862,-12.926318 -12.866822,-12.926318 -0.484159,0 -0.975929,0.02706 -1.46126,0.08116 -6.14713,0.68284 -11.041417,5.889127 -11.38507,12.110557 -0.207246,3.751796 1.209521,7.400668 3.887327,10.01028 2.10993,2.056166 3.320036,4.887511 3.320036,7.76826 v 1.660931 c 0,1.763856 1.427891,3.198349 3.183629,3.198349 h 4.910092 c 1.755738,0.0012 3.184214,-1.433906 3.184214,-3.197762 z m -2.341764,0 c 0,0.466402 -0.378195,0.845758 -0.841864,0.845758 h -4.910093 c -0.464255,0 -0.841864,-0.379944 -0.841864,-0.845758 v -1.660929 c 0,-3.513009 -1.469457,-6.959557 -4.031347,-9.456833 -2.190135,-2.13439 -3.349308,-5.120418 -3.179529,-8.191139 0.281011,-5.087481 4.280744,-9.344496 9.304412,-9.902649 0.400443,-0.0447 0.805567,-0.06705 1.204253,-0.06705 5.803476,0 10.525057,4.742827 10.525057,10.573727 0,2.920155 -1.159173,5.637987 -3.264419,7.653571 -2.518567,2.410818 -3.963435,5.833841 -3.963435,9.392137 v 1.659165 z"
       id="path2"
       inkscape:connector-curvature="0"
       style="fill:#060a40;fill-opacity:1;stroke:none;stroke-width:0.2;stroke-opacity:1;stroke-miterlimit:2.29999995;stroke-dasharray:none;paint-order:markers stroke fill" />
    <path
       d="m 33.700505,46.666144 h -7.62127 c -0.485331,0 -0.878162,0.394648 -0.878162,0.882223 0,0.487574 0.392831,0.882222 0.878162,0.882222 h 7.621856 c 0.48533,0 0.878161,-0.394648 0.878161,-0.882222 0,-0.487575 -0.393416,-0.882223 -0.878747,-0.882223 z"
       id="path4"
       inkscape:connector-curvature="0"
       style="fill:#060a40;fill-opacity:1;stroke:none;stroke-width:0.2;stroke-miterlimit:2.29999995;stroke-dasharray:none;stroke-opacity:1;paint-order:markers stroke fill" />
    <path
       d="m 34.578666,50.336189 c 0,-0.487575 -0.39283,-0.882223 -0.878161,-0.882223 h -7.62127 c -0.485331,0 -0.878162,0.394648 -0.878162,0.882223 0,0.487575 0.392831,0.882222 0.878162,0.882222 h 7.621856 c 0.484745,0 0.877575,-0.395236 0.877575,-0.882222 z"
       id="path6"
       inkscape:connector-curvature="0"
       style="fill:#060a40;fill-opacity:1;stroke:none;stroke-width:0.2;stroke-miterlimit:2.29999995;stroke-dasharray:none;stroke-opacity:1;paint-order:markers stroke fill" />
    <path
       d="M 9.2431242,23.57898 H 14.30309 c 0.485331,0 0.878161,-0.394648 0.878161,-0.882223 0,-0.487575 -0.39283,-0.882222 -0.878161,-0.882222 H 9.2431242 c -0.485331,0 -0.878162,0.394647 -0.878162,0.882222 0,0.487575 0.392831,0.882223 0.878162,0.882223 z"
       id="path8"
       inkscape:connector-curvature="0"
       style="fill:#6675ff;fill-opacity:1;stroke:url(#linearGradient5231);stroke-width:0.57826772;stroke-miterlimit:2.29999995;stroke-dasharray:none;stroke-opacity:1;paint-order:markers stroke fill" />
    <path
       d="m 51.414777,22.696757 c 0,-0.487575 -0.392831,-0.882222 -0.878161,-0.882222 H 45.47665 c -0.485331,0 -0.878161,0.394647 -0.878161,0.882222 0,0.487575 0.39283,0.882223 0.878161,0.882223 h 5.059966 c 0.48533,0 0.878161,-0.394648 0.878161,-0.882223 z"
       id="path10"
       inkscape:connector-curvature="0"
       style="fill:#6675ff;fill-opacity:1;stroke:url(#linearGradient5207);stroke-width:0.57826772;stroke-miterlimit:2.29999995;stroke-dasharray:none;stroke-opacity:1;paint-order:markers stroke fill" />
    <path
       d="m 29.011708,1.9545391 v 5.0833643 c 0,0.487575 0.392831,0.882222 0.878161,0.882222 0.485332,0 0.878162,-0.394647 0.878162,-0.882222 V 1.9545391 c 0,-0.4875749 -0.39283,-0.8822226 -0.878162,-0.8822226 -0.48533,0 -0.878161,0.3946477 -0.878161,0.8822226 z"
       id="path12"
       inkscape:connector-curvature="0"
       style="fill:#6675ff;fill-opacity:1;stroke:url(#linearGradient5189);stroke-width:0.57826772;stroke-miterlimit:2.29999995;stroke-dasharray:none;stroke-opacity:1;paint-order:markers stroke fill" />
    <path
       d="m 43.868443,7.4060844 -3.577629,3.5941726 c -0.343069,0.344066 -0.343069,0.903395 0,1.247462 0.171534,0.172327 0.396343,0.258197 0.621152,0.258197 0.22481,0 0.44962,-0.08587 0.621153,-0.258197 l 3.57763,-3.5941726 c 0.343068,-0.344067 0.343068,-0.903396 0,-1.247462 -0.343653,-0.344656 -0.899237,-0.344656 -1.242306,0 z"
       id="path14"
       inkscape:connector-curvature="0"
       style="fill:#6675ff;fill-opacity:1;stroke:url(#linearGradient5195);stroke-width:0.57826772;stroke-miterlimit:2.29999995;stroke-dasharray:none;stroke-opacity:1;paint-order:markers stroke fill" />
    <path
       d="m 19.488926,33.145797 c -0.343069,-0.344656 -0.898653,-0.344656 -1.241721,0 l -3.577629,3.594172 c -0.343069,0.344066 -0.343069,0.902808 0,1.247462 0.171534,0.172328 0.396344,0.258197 0.621153,0.258197 0.224809,0 0.449618,-0.08587 0.621152,-0.258197 l 3.57763,-3.594172 c 0.342483,-0.344067 0.342483,-0.902808 -5.85e-4,-1.247462 z"
       id="path16"
       inkscape:connector-curvature="0"
       style="fill:#6675ff;fill-opacity:1;paint-order:markers stroke fill;stroke:url(#linearGradient5225);stroke-width:0.57826772;stroke-miterlimit:4;stroke-dasharray:none" />
    <path
       d="m 18.247205,12.247719 c 0.171535,0.172327 0.396344,0.258197 0.621153,0.258197 0.224809,0 0.449619,-0.08587 0.621153,-0.258197 0.343068,-0.344067 0.343068,-0.903396 0,-1.247462 l -3.57763,-3.5941726 c -0.343068,-0.344656 -0.898651,-0.344656 -1.241719,0 -0.343069,0.344066 -0.343069,0.903395 0,1.247462 z"
       id="path18"
       inkscape:connector-curvature="0"
       style="fill:#6675ff;fill-opacity:1;stroke:url(#linearGradient5201);stroke-width:0.57826772;stroke-miterlimit:2.29999995;stroke-dasharray:none;stroke-opacity:1;paint-order:markers stroke fill" />
    <path
       d="m 43.868443,37.987431 c 0.171534,0.172328 0.396344,0.258197 0.621154,0.258197 0.224809,0 0.449618,-0.08587 0.621152,-0.258197 0.343068,-0.344654 0.343068,-0.903396 0,-1.247462 l -3.57763,-3.594172 c -0.343068,-0.344656 -0.898652,-0.344656 -1.24172,0 -0.343068,0.344654 -0.343068,0.903395 0,1.247462 z"
       id="path20"
       inkscape:connector-curvature="0"
       style="fill:#6675ff;fill-opacity:1;stroke:url(#linearGradient5219);stroke-width:0.57826772;stroke-miterlimit:2.29999995;stroke-dasharray:none;stroke-opacity:1;paint-order:markers stroke fill" />
    <path
       d="m 32.673056,53.123422 c 0,-0.487575 -0.392831,-0.882222 -0.878162,-0.882222 H 27.98426 c -0.485331,0 -0.878162,0.394647 -0.878162,0.882222 0,0.487575 0.392831,0.882223 0.878162,0.882223 h 3.810634 c 0.485331,0 0.878162,-0.394648 0.878162,-0.882223 z"
       id="path22"
       inkscape:connector-curvature="0"
       style="fill:#060a40;fill-opacity:1;stroke:none;stroke-width:0.2;stroke-miterlimit:2.29999995;stroke-dasharray:none;stroke-opacity:1;paint-order:markers stroke fill" />
    <ellipse
       style="fill:none"
       id="path329"
       cx="127.82117"
       cy="12.493295"
       rx="40.300945"
       ry="53.398754" />
  </g>
</svg>
