<svg xmlns="http://www.w3.org/2000/svg" viewBox="0 0 56.69 56.69"><defs><style>.cls-1{fill:#6675ff;}.cls-2,.cls-3,.cls-4{fill:none;stroke-linecap:round;stroke-linejoin:round;}.cls-2,.cls-4{stroke:#060a40;stroke-width:0.75px;}.cls-3{stroke:#fff;stroke-width:0.67px;}.cls-4{stroke-dasharray:0 2.67;}</style></defs><title>Tavola disegno 116 copia 2</title><g id="Livello_1" data-name="Livello 1"><rect class="cls-1" x="27.66" y="12.89" width="19.22" height="12.03"/><rect class="cls-2" x="6.99" y="6.42" width="42.72" height="43.85"/><line class="cls-2" x1="6.99" y1="9.22" x2="49.71" y2="9.22"/><rect class="cls-3" x="27.37" y="12.89" width="19.66" height="12.03"/><line class="cls-4" x1="9.66" y1="46.58" x2="47.04" y2="46.58"/><line class="cls-2" x1="9.66" y1="14.26" x2="23.87" y2="14.26"/><line class="cls-2" x1="9.66" y1="16.93" x2="23.87" y2="16.93"/><line class="cls-2" x1="9.66" y1="19.26" x2="23.87" y2="19.26"/><line class="cls-2" x1="9.66" y1="21.93" x2="23.87" y2="21.93"/><line class="cls-2" x1="9.66" y1="24.26" x2="23.87" y2="24.26"/><line class="cls-2" x1="23.01" y1="40.26" x2="33.69" y2="40.26"/><line class="cls-2" x1="23.01" y1="42.93" x2="33.69" y2="42.93"/><line class="cls-2" x1="23.01" y1="32.26" x2="33.69" y2="32.26"/><line class="cls-2" x1="23.01" y1="29.26" x2="33.69" y2="29.26"/><line class="cls-2" x1="23.01" y1="34.93" x2="33.69" y2="34.93"/><line class="cls-2" x1="23.01" y1="37.6" x2="33.69" y2="37.6"/><line class="cls-2" x1="36.01" y1="40.26" x2="46.69" y2="40.26"/><line class="cls-2" x1="36.01" y1="42.93" x2="46.69" y2="42.93"/><line class="cls-2" x1="36.01" y1="32.26" x2="46.69" y2="32.26"/><line class="cls-2" x1="36.01" y1="29.26" x2="46.69" y2="29.26"/><line class="cls-2" x1="36.01" y1="34.93" x2="46.69" y2="34.93"/><line class="cls-2" x1="36.01" y1="37.6" x2="46.69" y2="37.6"/><line class="cls-2" x1="10.01" y1="40.26" x2="20.69" y2="40.26"/><line class="cls-2" x1="10.01" y1="42.93" x2="20.69" y2="42.93"/><line class="cls-2" x1="10.01" y1="32.26" x2="20.69" y2="32.26"/><line class="cls-2" x1="10.01" y1="29.26" x2="20.69" y2="29.26"/><line class="cls-2" x1="10.01" y1="34.93" x2="20.69" y2="34.93"/><line class="cls-2" x1="10.01" y1="37.6" x2="20.69" y2="37.6"/></g></svg>