<?xml version="1.0" encoding="utf-8"?>
<!-- Generator: Adobe Illustrator 16.0.0, SVG Export Plug-In . SVG Version: 6.00 Build 0)  -->
<!DOCTYPE svg PUBLIC "-//W3C//DTD SVG 1.1//EN" "http://www.w3.org/Graphics/SVG/1.1/DTD/svg11.dtd">
<svg version="1.1" id="Ebene_1" xmlns="http://www.w3.org/2000/svg" xmlns:xlink="http://www.w3.org/1999/xlink" x="0px" y="0px"
	 width="880px" height="641.5px" viewBox="0 0 880 641.5" enable-background="new 0 0 880 641.5" xml:space="preserve">
<g>
	<polygon fill="#636466" points="132.271,433.43 111.562,493.072 93.337,433.43 68.9,433.43 50.676,493.072 29.967,433.43 
		4.701,433.43 41.15,537.391 58.546,537.391 80.912,465.321 103.692,537.391 121.088,537.391 157.123,433.43 	"/>
	<rect x="169.549" y="433.43" fill="#636466" width="23.194" height="103.961"/>
	<g>
		<path fill="#636466" d="M218.422,433.43h23.195v42.661l39.348-42.661h28.579l-41.418,45.974
			c3.728,4.972,10.354,14.082,19.88,27.751c9.527,13.668,16.982,23.609,21.538,30.236h-26.922l-30.65-41.006l-10.354,11.598v29.408
			h-23.195V433.43z"/>
	</g>
	<rect x="324.041" y="433.43" fill="#636466" width="23.194" height="103.961"/>
	<polygon fill="#636466" points="465.694,471.948 437.942,528.692 423.86,528.692 396.11,471.948 396.11,537.391 372.915,537.391 
		372.915,433.43 403.98,433.43 430.902,490.588 457.824,433.43 488.889,433.43 488.889,537.391 465.694,537.391 	"/>
	<polygon fill="#636466" points="589.536,433.43 589.536,454.138 537.763,454.138 537.763,475.675 584.565,475.675 584.565,495.557 
		537.763,495.557 537.763,517.095 591.192,517.095 591.192,537.391 514.568,537.391 514.568,433.43 	"/>
	<g>
		<path fill="#636466" d="M674.445,508.812c5.799-5.385,8.697-13.255,8.697-23.194c0-10.356-2.898-18.225-8.697-23.608
			c-5.8-5.386-14.497-8.285-26.095-8.285h-12.84v63.371h14.91C660.363,517.095,668.646,514.196,674.445,508.812 M691.427,447.096
			c9.939,9.113,14.91,21.54,14.91,37.692s-4.97,28.994-14.497,38.521c-9.524,9.525-24.438,14.082-44.316,14.082h-35.621V433.43
			h36.863C666.99,433.43,681.486,437.984,691.427,447.096"/>
	</g>
	<rect x="726.219" y="433.43" fill="#636466" width="23.194" height="103.961"/>
	<path fill="#636466" d="M817.754,464.493l12.842,30.234h-26.095L817.754,464.493z M806.156,433.43l-44.731,103.961h24.852
		l9.525-22.366h43.491l9.525,22.366h24.851L828.938,433.43H806.156z"/>
	<g>
		<path fill="#636466" d="M378.713,634.31c-4.97-2.484-8.698-6.211-11.597-10.769c-2.898-4.556-4.142-9.939-4.142-15.739
			c0-5.798,1.244-11.183,4.142-15.74c2.899-4.555,6.627-8.282,11.597-10.768c4.971-2.484,10.354-4.143,16.568-4.143
			c4.97,0,9.941,0.828,14.082,2.9c4.142,1.657,7.455,4.555,10.354,7.87l-8.697,8.282c-4.142-4.556-9.112-7.04-14.911-7.04
			c-3.728,0-7.042,0.827-9.941,2.484c-2.899,1.658-4.97,3.729-6.627,6.627c-1.656,2.899-2.484,6.213-2.484,9.941
			c0,3.727,0.828,7.039,2.484,9.939c1.658,2.9,3.729,4.972,6.627,6.627c2.899,1.657,6.213,2.485,9.941,2.485
			c5.799,0,10.769-2.485,14.911-7.041l8.697,8.283c-2.899,3.314-6.213,6.215-10.354,7.869c-4.141,1.658-8.698,2.9-14.082,2.9
			C389.068,638.038,383.684,636.796,378.713,634.31"/>
	</g>
	<polygon fill="#636466" points="473.978,577.567 473.978,601.175 447.055,601.175 447.055,577.567 432.973,577.567 432.973,637.21 
		447.055,637.21 447.055,612.771 473.978,612.771 473.978,637.21 487.646,637.21 487.646,577.567 	"/>
	<g>
		<path fill="#FFFFFF" d="M455.339,304.201c55.501-7.869,98.577-55.5,98.577-113.487c0-35.206-15.739-66.685-40.591-87.394
			l-57.573,57.573v143.308H455.339z"/>
		<path fill="#FFFFFF" d="M422.618,304.201V160.893l-57.573-57.573c-24.851,21.124-40.59,52.602-40.59,87.394
			C324.455,248.7,367.116,296.332,422.618,304.201"/>
		<path fill="#FFFFFF" d="M538.592,91.308c26.508,26.508,41.419,62.129,41.419,99.82s-14.497,72.897-41.419,99.404
			c-26.509,26.508-62.13,41.421-99.406,41.421c-37.277,0-72.898-14.498-99.406-41.421c-26.508-26.507-41.418-62.126-41.418-99.404
			c0-37.691,14.497-72.897,41.418-99.82c2.486-2.484,4.557-4.556,7.042-6.626l-32.307-32.307c-2.485,2.071-4.557,4.556-7.042,6.627
			c-16.981,16.981-30.65,36.863-39.762,59.229c-9.526,22.78-14.496,47.217-14.496,72.483c0,25.266,4.97,49.703,14.496,72.483
			c9.527,22.367,22.781,42.248,39.762,59.23c16.982,16.981,36.863,30.65,59.229,39.761c22.78,9.526,47.218,14.497,72.483,14.497
			c25.267,0,49.703-4.971,72.482-14.497c22.366-9.526,42.248-22.779,59.229-39.761c16.981-16.982,30.65-36.863,39.764-59.23
			c9.526-22.78,14.496-47.217,14.496-72.483c0-25.266-4.97-49.703-14.496-72.483c-9.527-22.366-22.782-42.248-39.764-59.229
			c-2.483-2.486-4.555-4.556-7.04-6.627L531.55,84.682C534.034,86.752,536.521,88.824,538.592,91.308"/>
		<path fill="#FFFFFF" d="M439.186,3.5c31.894,0,57.985,26.094,57.985,57.987s-26.092,57.987-57.985,57.987
			s-57.986-26.094-57.986-57.987S406.878,3.5,439.186,3.5"/>
		<path fill="#339966" d="M455.339,304.201c55.501-7.869,98.577-55.5,98.577-113.487c0-35.206-15.739-66.685-40.591-87.394
			l-57.573,57.573v143.308H455.339z"/>
		<path fill="#339966" d="M422.618,304.201V160.893l-57.573-57.573c-24.851,21.124-40.59,52.602-40.59,87.394
			C324.455,248.7,367.116,296.332,422.618,304.201"/>
		<path fill="#0065A4" d="M538.592,91.308c26.508,26.508,41.419,62.129,41.419,99.82s-14.497,72.897-41.419,99.404
			c-26.509,26.508-62.13,41.421-99.406,41.421c-37.277,0-72.898-14.498-99.406-41.421c-26.508-26.507-41.418-62.126-41.418-99.404
			c0-37.691,14.497-72.897,41.418-99.82c2.486-2.484,4.557-4.556,7.042-6.626l-32.307-32.307c-2.485,2.071-4.557,4.556-7.042,6.627
			c-16.981,16.981-30.65,36.863-39.762,59.229c-9.526,22.78-14.496,47.217-14.496,72.483c0,25.266,4.97,49.703,14.496,72.483
			c9.527,22.367,22.781,42.248,39.762,59.23c16.982,16.981,36.863,30.65,59.229,39.761c22.78,9.526,47.218,14.497,72.483,14.497
			c25.267,0,49.703-4.971,72.482-14.497c22.366-9.526,42.248-22.779,59.229-39.761c16.981-16.982,30.65-36.863,39.764-59.23
			c9.526-22.78,14.496-47.217,14.496-72.483c0-25.266-4.97-49.703-14.496-72.483c-9.527-22.366-22.782-42.248-39.764-59.229
			c-2.483-2.486-4.555-4.556-7.04-6.627L531.55,84.682C534.034,86.752,536.521,88.824,538.592,91.308"/>
		<path fill="#990000" d="M439.186,3.5c31.894,0,57.985,26.094,57.985,57.987s-26.092,57.987-57.985,57.987
			s-57.986-26.094-57.986-57.987S406.878,3.5,439.186,3.5"/>
	</g>
</g>
</svg>
